<?xml version="1.0" encoding="UTF-8"?>
<svg version="1.1" xmlns="http://www.w3.org/2000/svg" width="512" height="512">
<path d="M0 0 C0.86625 0.64582031 1.7325 1.29164062 2.625 1.95703125 C47.3272491 36.74762095 69.46396429 90.77304496 76.421875 145.69140625 C84.59048689 217.571147 71.16405488 297.4946782 30 358 C29.06414062 359.40185547 29.06414062 359.40185547 28.109375 360.83203125 C21.50791491 370.51119908 14.02088171 379.47116849 6 388 C5.4755127 388.55848633 4.95102539 389.11697266 4.41064453 389.69238281 C-8.53515371 403.36249865 -22.74667097 414.78681474 -39.19238281 423.98681641 C-40.95946143 424.97727781 -42.70985745 425.9933144 -44.4609375 427.01171875 C-67.01506438 439.8548663 -92.51941124 447.02367111 -117.875 451.8125 C-118.90657227 452.0074707 -119.93814453 452.20244141 -121.00097656 452.40332031 C-138.22522698 455.46384992 -155.28079133 456.3779963 -172.75 456.3125 C-173.7622464 456.31067719 -174.7744928 456.30885437 -175.81741333 456.30697632 C-190.40776106 456.2627531 -204.65220844 455.87236061 -219 453 C-219.91007813 452.82839355 -220.82015625 452.65678711 -221.7578125 452.47998047 C-277.70254306 441.81885079 -333.25524349 416.80881417 -369 371 C-369.6482373 370.17435547 -369.6482373 370.17435547 -370.30957031 369.33203125 C-378.00458491 359.45667005 -384.25756124 349.11219846 -390 338 C-390.4110498 337.21979492 -390.82209961 336.43958984 -391.24560547 335.63574219 C-411.73131779 296.42412102 -420.21638136 251.59076882 -420.25 207.625 C-420.25101212 206.4206279 -420.25101212 206.4206279 -420.25204468 205.19192505 C-420.17081496 143.62663354 -406.10672091 80.49944785 -365 33 C-364.31808594 32.20722656 -363.63617188 31.41445312 -362.93359375 30.59765625 C-321.92152699 -16.00353195 -267.61835099 -39.77451387 -205.97949219 -43.81640625 C-204.99625977 -43.87699219 -204.01302734 -43.93757813 -203 -44 C-201.9884082 -44.06316406 -200.97681641 -44.12632813 -199.93457031 -44.19140625 C-133.00707604 -48.09776109 -54.98663177 -42.25535197 0 0 Z M-302 -13 C-300.08046178 -11.77049908 -300.08046178 -11.77049908 -298.16601562 -12.44970703 C-297.42029297 -12.71638184 -296.67457031 -12.98305664 -295.90625 -13.2578125 C-295.05417969 -13.55139648 -294.20210938 -13.84498047 -293.32421875 -14.14746094 C-292.39222656 -14.47004883 -291.46023438 -14.79263672 -290.5 -15.125 C-270.90337379 -21.62043803 -250.4495013 -24.57736554 -230 -27 C-228.79931381 -27.14241371 -228.79931381 -27.14241371 -227.57437134 -27.28770447 C-212.03072579 -29.06097933 -196.53803007 -29.34446143 -180.90698242 -29.31567383 C-178.18611067 -29.31105229 -175.46568709 -29.31794913 -172.74487305 -29.33618164 C-154.31534038 -29.45834737 -136.26969552 -28.55465823 -118 -26 C-117.24042999 -25.89531403 -116.48085999 -25.79062805 -115.69827271 -25.68276978 C-111.73970054 -25.12529081 -107.80622464 -24.47432947 -103.875 -23.75 C-102.16098999 -23.43748291 -102.16098999 -23.43748291 -100.41235352 -23.11865234 C-61.24701931 -15.67170358 -25.32749637 -1.43113194 4 26 C4.88816406 26.82242188 5.77632813 27.64484375 6.69140625 28.4921875 C46.38628942 66.54958616 62.23621045 126.92947682 63.36051941 180.29072571 C63.42472174 186.04870584 63.41378757 191.80438564 63.375 197.5625 C63.37101196 198.77447052 63.36702393 199.98644104 63.36291504 201.23513794 C63.25718144 228.76179688 61.1916279 255.40941506 56.40917969 282.54394531 C55.83021256 286.01912986 55.40348076 289.50042195 55 293 C68.74772257 272.37841615 70.65269097 237.1604497 73 213 C73.07057617 212.29762207 73.14115234 211.59524414 73.21386719 210.87158203 C73.65561599 206.251918 73.87693878 201.63721378 74 197 C74.04084717 195.56406494 74.04084717 195.56406494 74.08251953 194.09912109 C75.61251961 130.79175945 60.56386381 68.0245561 16.3125 21.05859375 C-26.26862701 -23.2624753 -89.94767089 -38.88122559 -149.78857422 -40.19213867 C-155.64693012 -40.27421471 -161.50421417 -40.28158781 -167.36303711 -40.26074219 C-170.93165097 -40.25001758 -174.49976052 -40.26071784 -178.06835938 -40.2734375 C-221.21223504 -40.29919493 -264.0556302 -35.12250449 -302 -13 Z M-343 82 C-343 86.29 -343 90.58 -343 95 C-342.67 95 -342.34 95 -342 95 C-342 90.71 -342 86.42 -342 82 C-342.33 82 -342.66 82 -343 82 Z M-302 86 C-300.4353105 96.42285102 -297.61919436 106.52852806 -294.875 116.6875 C-294.63111542 117.59242188 -294.38723083 118.49734375 -294.13595581 119.4296875 C-291.13975256 130.51236504 -288.08909547 141.57236382 -284.5625 152.5 C-284.25747559 153.47670654 -283.95245117 154.45341309 -283.63818359 155.4597168 C-283.34637207 156.32894775 -283.05456055 157.19817871 -282.75390625 158.09375 C-282.50970947 158.83302734 -282.2655127 159.57230469 -282.01391602 160.33398438 C-281.11270746 162.21036422 -281.11270746 162.21036422 -278.89038086 162.74414062 C-278.26655518 162.82857422 -277.64272949 162.91300781 -277 163 C-280.26388975 148.60963265 -283.95373891 134.3299008 -287.65551758 120.04711914 C-288.52582778 116.68889511 -289.39232372 113.32969948 -290.25784588 109.97023869 C-291.09034062 106.74132617 -291.92619001 103.51328501 -292.76171875 100.28515625 C-293.07211594 99.08012955 -293.38251312 97.87510284 -293.70231628 96.63356018 C-293.98964127 95.52737839 -294.27696625 94.42119659 -294.57299805 93.28149414 C-294.825186 92.30684708 -295.07737396 91.33220001 -295.33720398 90.32801819 C-295.92163199 88.00239704 -295.92163199 88.00239704 -297 86 C-298.65 86 -300.3 86 -302 86 Z M-211 86 C-211 123.95 -211 161.9 -211 201 C-209.02 201 -207.04 201 -205 201 C-205 163.05 -205 125.1 -205 86 C-206.98 86 -208.96 86 -211 86 Z M-175.9375 86.5 C-177.65259766 86.63921875 -177.65259766 86.63921875 -179.40234375 86.78125 C-180.25957031 86.8534375 -181.11679688 86.925625 -182 87 C-182 87.66 -182 88.32 -182 89 C-174.575 89.99 -174.575 89.99 -167 91 C-166.20010167 100.0446942 -165.83453664 109.02340471 -165.77020454 118.0990963 C-165.75337545 120.39668558 -165.73012802 122.69413724 -165.70530701 124.99165344 C-165.6357124 131.51560185 -165.57527619 138.03960928 -165.52319336 144.5637207 C-165.36309766 164.12843138 -164.89707225 183.50873026 -163 203 C-162.34 203 -161.68 203 -161 203 C-160.96896005 193.43751468 -160.94887011 183.8750269 -160.9375 174.3125 C-160.93664398 173.59772491 -160.93578796 172.88294983 -160.93490601 172.14651489 C-160.90456608 143.42107707 -161.31519921 114.71792257 -162 86 C-166.67970546 85.98049107 -171.27271927 86.11527582 -175.9375 86.5 Z M-139 87 C-139 88.32 -139 89.64 -139 91 C-138.02417969 91.06058594 -137.04835938 91.12117187 -136.04296875 91.18359375 C-134.13451172 91.30927734 -134.13451172 91.30927734 -132.1875 91.4375 C-130.92292969 91.51871094 -129.65835937 91.59992188 -128.35546875 91.68359375 C-125 92 -125 92 -122 93 C-121.07205382 101.451442 -120.80906702 109.83829826 -120.71875 118.3359375 C-120.70062739 119.70480981 -120.68202124 121.07367579 -120.66296387 122.4425354 C-120.60392042 126.75330281 -120.5516365 131.06413848 -120.5 135.375 C-120.43166512 141.02871115 -120.3600041 146.68236116 -120.28125 152.3359375 C-120.27186401 153.01697289 -120.26247803 153.69800827 -120.25280762 154.39968109 C-120.08788102 165.9482089 -119.67294908 177.47003028 -119 189 C-105.31652778 189.74843041 -91.70474172 190.13248408 -78 190 C-78.33 189.01 -78.66 188.02 -79 187 C-90.22 187 -101.44 187 -113 187 C-113.92060473 182.39697634 -114.2018146 178.12453745 -114.28125 173.46533203 C-114.30832031 172.19363159 -114.30832031 172.19363159 -114.3359375 170.89624023 C-114.37445115 169.06022228 -114.41091517 167.22416043 -114.44555664 165.38806534 C-114.50054813 162.47881416 -114.56107901 159.56972443 -114.62304688 156.66061401 C-114.753655 150.48217281 -114.8772622 144.30360187 -115 138.125 C-115.14230279 130.97039361 -115.28749502 123.81586787 -115.43969727 116.66146469 C-115.4990898 113.80163988 -115.55336171 110.94174748 -115.60742188 108.08181763 C-115.64428367 106.31902557 -115.68138067 104.5562384 -115.71875 102.79345703 C-115.73228516 102.0036142 -115.74582031 101.21377136 -115.75976562 100.3999939 C-115.77652344 99.65715149 -115.79328125 98.91430908 -115.81054688 98.1489563 C-115.82307495 97.51296068 -115.83560303 96.87696507 -115.84851074 96.22169685 C-116.05924686 93.13110301 -116.56190914 90.06663601 -117 87 C-124.26 87 -131.52 87 -139 87 Z M-54.875 86.5 C-56.02742188 86.5928125 -57.17984375 86.685625 -58.3671875 86.78125 C-59.67042969 86.88953125 -59.67042969 86.88953125 -61 87 C-61 87.99 -61 88.98 -61 90 C-59.62714844 90.16435547 -59.62714844 90.16435547 -58.2265625 90.33203125 C-56.44378906 90.56986328 -56.44378906 90.56986328 -54.625 90.8125 C-52.84996094 91.03873047 -52.84996094 91.03873047 -51.0390625 91.26953125 C-48 92 -48 92 -46 95 C-45.60522461 97.5402832 -45.60522461 97.5402832 -45.40234375 100.55078125 C-45.32306641 101.64197266 -45.24378906 102.73316406 -45.16210938 103.85742188 C-45.05092773 105.56768555 -45.05092773 105.56768555 -44.9375 107.3125 C-44.78227615 109.55875585 -44.6247948 111.80485706 -44.46484375 114.05078125 C-44.399021 115.04762939 -44.33319824 116.04447754 -44.26538086 117.0715332 C-43.9923974 120.08389442 -43.53333657 123.02365571 -43 126 C-37.66669694 125.83054383 -35.42095163 123.94713627 -31.90014648 120.28707886 C-30.99051147 119.30579514 -30.99051147 119.30579514 -30.0625 118.3046875 C-28.74240087 116.93599209 -27.42208173 115.56750885 -26.1015625 114.19921875 C-24.04207271 112.03384893 -21.9887009 109.86299638 -19.94042969 107.68701172 C-17.95430458 105.58643034 -15.94734753 103.5075433 -13.9375 101.4296875 C-13.02786499 100.44233109 -13.02786499 100.44233109 -12.09985352 99.43502808 C-10.4628819 97.75108066 -8.96794024 96.28167231 -7 95 C-3.20483968 94.98007274 -1.73261223 95.3606539 1.1171875 97.84765625 C1.98730469 98.94400391 1.98730469 98.94400391 2.875 100.0625 C3.76832031 101.16271484 3.76832031 101.16271484 4.6796875 102.28515625 C5.11539063 102.85105469 5.55109375 103.41695312 6 104 C7.98 102.35 9.96 100.7 12 99 C8.28907079 95.8411676 4.49789353 93.51404508 0.1875 91.25 C-0.97394531 90.63640625 -2.13539063 90.0228125 -3.33203125 89.390625 C-4.21246094 88.93171875 -5.09289062 88.4728125 -6 88 C-6.825 88.88558594 -7.65 89.77117187 -8.5 90.68359375 C-10.29087023 92.60566327 -12.0831722 94.52633591 -13.87866211 96.4440918 C-17.37779952 100.18193546 -20.85979219 103.93370318 -24.31640625 107.7109375 C-25.73169356 109.24486297 -27.14705641 110.77871874 -28.5625 112.3125 C-29.22830078 113.04718506 -29.89410156 113.78187012 -30.58007812 114.53881836 C-36.41370877 120.82921932 -36.41370877 120.82921932 -41 122 C-40.99476318 121.40687012 -40.98952637 120.81374023 -40.98413086 120.20263672 C-40.89658254 108.7504305 -40.90952647 97.41102662 -42 86 C-46.32306711 85.94743991 -50.56656479 86.148291 -54.875 86.5 Z M-344 96 C-344 104.58 -344 113.16 -344 122 C-343.67 122 -343.34 122 -343 122 C-343 113.42 -343 104.84 -343 96 C-343.33 96 -343.66 96 -344 96 Z M-37 97 C-36 99 -36 99 -36 99 Z M-112 105 C-112 107.97 -112 110.94 -112 114 C-111.67 114 -111.34 114 -111 114 C-111 111.03 -111 108.06 -111 105 C-111.33 105 -111.66 105 -112 105 Z M-144 110 C-143 113 -143 113 -143 113 Z M-321 112 C-322.10324487 130.38445826 -323.12254108 148.77188708 -323.99127197 167.16903687 C-324.07972244 169.04149407 -324.16902342 170.91391131 -324.25921631 172.7862854 C-324.94035322 186.88600785 -324.94035322 186.88600785 -325 201 C-324.01 201 -323.02 201 -322 201 C-321.34559019 190.29918976 -320.69346793 179.59824279 -320.04424286 168.89711666 C-319.74269105 163.92784275 -319.44035989 158.95861883 -319.13623047 153.98950195 C-318.84260475 149.19152833 -318.55104867 144.39343297 -318.26091003 139.59524727 C-318.15001188 137.76724348 -318.0383757 135.9392843 -317.92597961 134.11137199 C-317.7683438 131.54563601 -317.61336376 128.97975206 -317.45898438 126.41381836 C-317.41223068 125.66287399 -317.36547699 124.91192963 -317.31730652 124.13822937 C-317.05637758 119.74712793 -316.95759985 115.39592528 -317 111 C-318.36893239 110.94729537 -318.36893239 110.94729537 -321 112 Z M-345 122 C-345 130.91 -345 139.82 -345 149 C-344.67 149 -344.34 149 -344 149 C-344 140.09 -344 131.18 -344 122 C-344.33 122 -344.66 122 -345 122 Z M-67 143 C-66 145 -66 145 -66 145 Z M-31 148 C-31.33135863 151.55828188 -31.47851491 153.36849053 -29.27734375 156.2734375 C-28.50519531 156.96695313 -27.73304688 157.66046875 -26.9375 158.375 C-24.06539037 160.99672058 -21.39126928 163.65110372 -18.859375 166.59765625 C-14.22314421 171.96070855 -9.28561549 177.01314163 -4.3125 182.0625 C-3.60806763 182.79521118 -3.60806763 182.79521118 -2.8894043 183.54272461 C-1.51787804 184.9686859 -0.12833164 186.37724654 1.26171875 187.78515625 C2.07600342 188.61926025 2.89028809 189.45336426 3.72924805 190.31274414 C5.83978736 192.27777429 5.83978736 192.27777429 8.29614258 191.76342773 C8.85841553 191.51149658 9.42068848 191.25956543 10 191 C8.58261511 187.74792908 6.87473588 185.68638933 4.3125 183.25 C1.71273345 180.77006237 -0.69530566 178.21284546 -3.02734375 175.484375 C-7.54431016 170.27747635 -12.41868679 165.43105041 -17.29980469 160.56982422 C-18.89638134 158.97869157 -20.48743611 157.38217285 -22.078125 155.78515625 C-23.09082465 154.773116 -24.1038337 153.76138524 -25.1171875 152.75 C-26.03097168 151.83734375 -26.94475586 150.9246875 -27.88623047 149.984375 C-29.63829996 147.88592674 -29.63829996 147.88592674 -31 148 Z M-346 152 C-345 154 -345 154 -345 154 Z M-182 160 C-181 163 -181 163 -181 163 Z M-43 171 C-43 181.56 -43 192.12 -43 203 C-42.01 203 -41.02 203 -40 203 C-40 192.44 -40 181.88 -40 171 C-40.99 171 -41.98 171 -43 171 Z M-317 181 C-316 185 -316 185 -316 185 Z M-143 190 C-142 192 -142 192 -142 192 Z M-36 195 C-35 197 -35 197 -35 197 Z M-318 198 C-318 199.65 -318 201.3 -318 203 C-317.67 203 -317.34 203 -317 203 C-317 201.35 -317 199.7 -317 198 C-317.33 198 -317.66 198 -318 198 Z M-142 206 C-142 206.66 -142 207.32 -142 208 C-141.34 207.67 -140.68 207.34 -140 207 C-140.66 206.67 -141.32 206.34 -142 206 Z M-137 207 C-137 207.33 -137 207.66 -137 208 C-131.72 208 -126.44 208 -121 208 C-121 207.67 -121 207.34 -121 207 C-126.28 207 -131.56 207 -137 207 Z M-176 238 C-175.12859375 237.855625 -174.2571875 237.71125 -173.359375 237.5625 C-153.32103628 234.43964202 -136.07525506 236.31839612 -118.81640625 247.40234375 C-107.72561802 255.92421889 -103.06702206 270.51650241 -101.3125 283.81640625 C-99.32870665 304.02630104 -105.42495097 321.41528288 -113.5625 339.5625 C-120.5654054 355.1879357 -126.01796771 368.12561855 -120 385 C-114.85585962 396.47398687 -107.49562246 403.28316517 -96 408.3125 C-89.61292362 409.776205 -83.44445887 410.52631921 -77 409 C-77 408.67 -77 408.34 -77 408 C-77.65484375 407.98582031 -78.3096875 407.97164062 -78.984375 407.95703125 C-89.47605698 407.40873714 -98.72392515 404.17385865 -106.38671875 396.8125 C-108.89954836 393.9893694 -110.39173813 391.45478476 -112 388 C-112.29777344 387.36835938 -112.59554687 386.73671875 -112.90234375 386.0859375 C-119.5977645 369.60964866 -112.26715351 352.79115411 -106.00952148 337.48730469 C-96.86644903 315.08752783 -91.89843396 290.13280796 -101.6640625 266.88671875 C-108.37982837 252.01165952 -118.46602406 241.19784448 -133.8125 235.125 C-145.3333613 230.88711923 -166.25561933 228.25561933 -176 238 Z M-41 239 C-40.3709375 239.01417969 -39.741875 239.02835937 -39.09375 239.04296875 C-32.76833357 239.39543924 -27.63111038 240.42441852 -23 245 C-21.52656716 247.6789688 -20.80922615 250.01597857 -20 253 C-19.67 253 -19.34 253 -19 253 C-18.57695229 248.09264656 -18.41572906 245.93837454 -21.0625 241.6875 C-25.12440161 237.97129214 -28.7183706 236.26842699 -34.1875 235.625 C-37.36620826 236.04882777 -38.55565803 237.02149622 -41 239 Z M-137 243 C-136.01 243.7734375 -136.01 243.7734375 -135 244.5625 C-134.01 245.366875 -133.02 246.17125 -132 247 C-131.07574219 247.7115625 -131.07574219 247.7115625 -130.1328125 248.4375 C-118.72450127 257.67068574 -113.31015971 270.84343618 -111.76171875 285.2109375 C-111.29431374 298.83948357 -116.88582542 311.6458384 -121.70288086 324.11328125 C-129.59130839 344.75036723 -134.03804611 366.72281911 -126 388 C-124.30020599 391.60042824 -122.35503824 394.79374311 -120 398 C-119.47535156 398.71800781 -118.95070313 399.43601562 -118.41015625 400.17578125 C-112.19968836 407.9352129 -103.50328054 413.2148659 -93.5703125 414.4140625 C-92.43335938 414.48367188 -91.29640625 414.55328125 -90.125 414.625 C-88.97257812 414.69976562 -87.82015625 414.77453125 -86.6328125 414.8515625 C-85.32957031 414.92503906 -85.32957031 414.92503906 -84 415 C-86.96519117 413.02320589 -87.9563054 412.74683107 -91.3125 412.3125 C-101.27217113 410.41680857 -110.92795947 405.58759258 -117.31640625 397.60546875 C-125.05006951 385.6371314 -128.33558352 372.88904377 -125.56787109 358.80029297 C-122.86296725 348.3535221 -118.10035336 338.59641783 -113.5534668 328.85668945 C-105.48172732 311.45465537 -101.28797952 291.45084599 -107.03515625 272.59375 C-111.52093423 260.53481649 -118.37745272 251.55516208 -129.640625 245.05859375 C-132.09528483 243.95724803 -134.3494692 243.41825752 -137 243 Z M-413 246 C-412 249 -412 249 -412 249 Z M-311 251 C-309.60587891 251.23783203 -309.60587891 251.23783203 -308.18359375 251.48046875 C-300.91623913 252.85209668 -295.52380157 253.97836221 -290 259 C-288.0549 261.91765 -287.54723683 263.62537285 -287 267 C-286.67 267 -286.34 267 -286 267 C-285.68772252 263.0965315 -285.78675106 260.48465667 -287.375 256.875 C-291.40972522 252.45601523 -296.35968205 249.5934636 -302.32421875 248.62109375 C-306.05178829 248.51774154 -307.86245572 248.90830381 -311 251 Z M-412 251 C-412 252.65 -412 254.3 -412 256 C-411.67 256 -411.34 256 -411 256 C-411 254.35 -411 252.7 -411 251 C-411.33 251 -411.66 251 -412 251 Z M-411 256 C-410.53865233 264.26805357 -409.00896123 271.94824865 -406.875 279.9375 C-406.56296631 281.11755615 -406.25093262 282.2976123 -405.92944336 283.51342773 C-398.57337127 310.77503459 -387.87907728 339.77600729 -370 362 C-370 358.61128371 -370.63552233 357.56874634 -372.34375 354.7109375 C-372.84406738 353.86128418 -373.34438477 353.01163086 -373.85986328 352.13623047 C-374.4011084 351.22502441 -374.94235352 350.31381836 -375.5 349.375 C-392.28916755 320.43273664 -403.16905145 288.72349639 -410 256 C-410.33 256 -410.66 256 -411 256 Z M-55.40625 287.2421875 C-61.92730982 294.43453289 -63.3307842 303.27946476 -63.20703125 312.6171875 C-62.68846583 321.09035074 -60.4879105 329.24778981 -58.27734375 337.41015625 C-54.33762076 352.12852064 -51.89101492 365.7420889 -52 381 C-46.13400767 370.05014766 -47.63770734 353.53084112 -50.75 341.875 C-51.47082887 339.57399112 -52.22006132 337.28165111 -53 335 C-53.73466293 332.64754275 -54.46402763 330.29342285 -55.1875 327.9375 C-55.67283203 326.43509766 -55.67283203 326.43509766 -56.16796875 324.90234375 C-59.21809279 314.2627092 -58.84311091 303.38906904 -55 293 C-53.22324999 289.80817937 -51.24605425 286.87843846 -49 284 C-51.84748533 284 -53.31194348 285.44560103 -55.40625 287.2421875 Z M54 294 C55 296 55 296 55 296 Z M-10 302 C-10.12117188 303.29292969 -10.24234375 304.58585937 -10.3671875 305.91796875 C-10.53569893 307.67455218 -10.70502674 309.43105742 -10.875 311.1875 C-10.96305908 312.10499023 -11.05111816 313.02248047 -11.1418457 313.96777344 C-11.63654322 318.94536652 -12.27293525 323.82877062 -13.1875 328.75 C-14.44233133 336.21089635 -13.71093484 343.51596969 -13 351 C-12.67 351 -12.34 351 -12 351 C-6.91690294 326.56709684 -6.91690294 326.56709684 -9 302 C-9.33 302 -9.66 302 -10 302 Z M-283 309 C-281.88625 310.0828125 -281.88625 310.0828125 -280.75 311.1875 C-273.72390546 318.3732785 -269.92719755 324.82221773 -270 335 C-270.41780249 337.89395305 -270.96096197 340.70762446 -271.625 343.5546875 C-272.01088054 346.07095021 -271.80074646 347.60888211 -271 350 C-265.69641613 336.53921714 -265.69641613 336.53921714 -267.953125 322.6015625 C-270.56604354 317.35830596 -274.00072431 313.13153735 -279 310 C-281.12729359 309.3304725 -281.12729359 309.3304725 -283 309 Z M-273 350 C-272 352 -272 352 -272 352 Z M-44 354 C-44.03738281 355.16015625 -44.07476562 356.3203125 -44.11328125 357.515625 C-44.58439493 369.54644858 -45.81661347 380.35460492 -51.328125 391.2578125 C-51.54984375 391.83273437 -51.7715625 392.40765625 -52 393 C-51.67 393.66 -51.34 394.32 -51 395 C-44.60462304 385.45867709 -41.77808702 377.00493476 -41.6875 365.5625 C-41.68186035 364.87591309 -41.6762207 364.18932617 -41.67041016 363.48193359 C-41.72352255 359.83518277 -42.00967328 357.10046912 -44 354 Z M-369 362 C-368.67 362.99 -368.34 363.98 -368 365 C-368 364.01 -368 363.02 -368 362 C-368.33 362 -368.66 362 -369 362 Z M-366 366 C-365 368 -365 368 -365 368 Z M-185 370 C-184 373 -184 373 -184 373 Z M-186 374 C-186.18433594 374.58265625 -186.36867188 375.1653125 -186.55859375 375.765625 C-191.24290028 389.00659812 -200.64564789 399.8743489 -213.125 406.375 C-226.34457597 411.59754853 -241.27192346 410.77130842 -254.375 405.8125 C-259.76115535 403.40100417 -263.88613629 400.19856091 -268 396 C-268 399.8214117 -266.51589079 401.33451205 -264.015625 404.09765625 C-255.24706342 412.37341108 -243.91055142 417.06382182 -231.875 417.4375 C-218.64963866 416.91544626 -206.10537076 411.67445644 -197 402 C-190.9754098 394.9964139 -187.1667155 386.96027138 -185 378 C-185.2693238 375.68401095 -185.2693238 375.68401095 -186 374 Z M-53 381 C-52 384 -52 384 -52 384 Z M-273 389 C-272 391 -272 391 -272 391 Z M-272 391 C-271 393 -271 393 -271 393 Z M-340 394 C-338.35 395.65 -336.7 397.3 -335 399 C-334.34 397.68 -333.68 396.36 -333 395 C-335.31 394.67 -337.62 394.34 -340 394 Z M-270 394 C-269 396 -269 396 -269 396 Z M-53 395 C-53 398 -53 398 -53 398 Z M-262 396 C-261.01 397.485 -261.01 397.485 -260 399 C-259.34 398.67 -258.68 398.34 -258 398 C-259.32 397.34 -260.64 396.68 -262 396 Z M-258 399 C-255.60490662 401.89932357 -253.68754757 402.50168276 -250 403 C-252.62198774 400.84622436 -254.64404172 399.59927826 -258 399 Z " fill="#6346DC" transform="translate(427,50)"/>
<path d="M0 0 C12.10169752 9.12935076 18.18508805 22.12145081 20.44921875 36.84765625 C22.25064472 50.9699463 15.71888453 65.09105427 10.74633789 77.9609375 C2.8617689 98.58792906 -1.60027054 120.58110429 6.44921875 141.84765625 C8.16370329 145.43073629 10.11708022 148.63657103 12.44921875 151.84765625 C12.90039062 152.4921875 13.3515625 153.13671875 13.81640625 153.80078125 C19.54265666 161.24167161 28.25988495 165.76594614 37.421875 167.3671875 C50.98268722 168.6529788 62.00639186 165.70937193 72.59765625 157.1015625 C83.16549225 147.36376725 88.30055056 134.80514646 89.07421875 120.66015625 C89.12740358 110.2891135 85.48919209 100.52130243 82.37304688 90.74951172 C73.39937957 62.56214131 73.39937957 62.56214131 79.44921875 48.84765625 C82.54187636 43.42144789 86.34171916 38.77888142 92.44921875 36.84765625 C100.91407057 35.49777955 107.05334984 38.25009735 114.19921875 42.47265625 C119.38181879 47.94317852 121.76241781 53.67945624 121.94921875 61.22265625 C121.74937619 67.15346771 120.85668262 72.87509631 119.88671875 78.72265625 C117.3701613 93.96325101 117.84659088 110.41906169 126.06640625 124.00390625 C129.00015923 127.91557689 132.13141905 129.55481187 136.82421875 130.59765625 C137.69046875 130.68015625 138.55671875 130.76265625 139.44921875 130.84765625 C135.20390055 144.18323208 116.90075518 154.8751383 106.2734375 162.7265625 C103.83235912 164.55990352 101.48786791 166.46483396 99.13671875 168.41015625 C87.48108747 177.50364876 71.81823428 184.55233167 57.83691406 189.07299805 C55.36946637 189.87353092 52.91929955 190.71563958 50.46875 191.56640625 C40.53050983 194.98258762 30.7916994 197.90070396 20.44921875 199.84765625 C19.03289003 200.16235849 17.61757872 200.48166238 16.203125 200.8046875 C-14.22641463 207.59633788 -45.40676529 208.87150632 -76.23828125 204.59765625 C-77.35061127 204.4442981 -77.35061127 204.4442981 -78.4854126 204.2878418 C-89.33477173 202.75875166 -99.92846488 200.51752544 -110.55078125 197.84765625 C-111.28083878 197.66603943 -112.0108963 197.48442261 -112.76307678 197.29730225 C-131.39439269 192.6448172 -149.35226084 185.68229304 -166.55078125 177.16015625 C-167.41541992 176.73331543 -168.28005859 176.30647461 -169.17089844 175.86669922 C-174.55597378 173.11327766 -179.46263962 169.94873937 -184.35473633 166.39355469 C-186.27347367 165.04286599 -188.17427476 163.89304839 -190.23828125 162.78515625 C-194.03684312 160.56335591 -197.52576823 158.06575521 -200.55078125 154.84765625 C-200.55078125 154.18765625 -200.55078125 153.52765625 -200.55078125 152.84765625 C-199.82632813 152.64011719 -199.101875 152.43257812 -198.35546875 152.21875 C-191.60725316 150.06831863 -187.42947702 147.85815428 -183.55078125 141.84765625 C-180.92511044 136.59631463 -181.50444584 128.3806065 -183.16162109 122.78515625 C-184.73583395 118.66386898 -186.6775389 114.72201938 -188.63134766 110.77001953 C-190.05739895 107.78841362 -191.23963753 104.7455213 -192.42578125 101.66015625 C-192.81507813 100.65597656 -193.204375 99.65179688 -193.60546875 98.6171875 C-196.33501941 90.6202808 -196.17142081 84.0220495 -192.80859375 76.2734375 C-188.75717494 68.45998695 -182.58281239 64.24930747 -174.80078125 60.53515625 C-167.0513169 58.89584648 -158.51071768 58.66049128 -151.55078125 62.84765625 C-143.95849769 68.34290308 -139.11414206 74.04911718 -137.61328125 83.41015625 C-137.01018123 92.78692562 -139.95728215 102.06061982 -142.73828125 110.91015625 C-146.16419605 122.65614984 -145.35575441 133.60166079 -140.55078125 144.84765625 C-138.77624064 148.05036993 -136.80300372 150.96481149 -134.55078125 153.84765625 C-133.93074219 154.68167969 -133.31070313 155.51570312 -132.671875 156.375 C-125.51023113 164.72365667 -114.1620962 169.00514592 -103.4453125 170.19140625 C-90.79135687 170.58428456 -77.57979281 166.33197287 -68.203125 157.6171875 C-53.3299073 141.68913166 -52.98724357 122.7162866 -53.43652344 102.16308594 C-53.87946518 89.31020372 -58.02568398 78.82810532 -62.91308594 67.0703125 C-69.19959421 51.74782235 -72.9755597 34.69362169 -66.87109375 18.6640625 C-61.12692105 6.41096038 -52.66200617 -0.30712816 -40.25 -5.20703125 C-26.72884156 -9.94237183 -11.93820807 -7.62770908 0 0 Z " fill="#3C14D4" transform="translate(295.55078125,296.15234375)"/>
<path d="M0 0 C8.03695915 0.01613847 16.04914205 0.20016181 24.078125 0.5703125 C25.37218262 0.62904541 25.37218262 0.62904541 26.69238281 0.68896484 C28.3618042 0.7727892 30.03069231 0.86817145 31.69873047 0.97607422 C33.35252077 1.08222633 35.00824221 1.16117917 36.66455078 1.21533203 C37.46231934 1.26157715 38.26008789 1.30782227 39.08203125 1.35546875 C39.79174072 1.38519775 40.5014502 1.41492676 41.23266602 1.44555664 C44.19472888 2.51250571 44.80646411 4.35721908 46.140625 7.1328125 C46.78711466 9.0622912 47.35794283 11.01812725 47.8671875 12.98828125 C48.17261475 14.15270752 48.47804199 15.31713379 48.79272461 16.5168457 C49.11378174 17.77198975 49.43483887 19.02713379 49.765625 20.3203125 C50.1079698 21.63327479 50.45116698 22.94601508 50.79516602 24.25854492 C51.52801361 27.05905392 52.25665209 29.86060799 52.98193359 32.66308594 C54.79506898 39.6651527 56.63267759 46.66076893 58.47601318 53.65493774 C59.07345406 55.92754468 59.66609773 58.20136515 60.25830078 60.4753418 C60.62385216 61.86772076 60.98956634 63.26005699 61.35546875 64.65234375 C61.67636475 65.88057861 61.99726074 67.10881348 62.32788086 68.37426758 C62.86832422 71.01999169 62.86832422 71.01999169 64.140625 72.1328125 C64.44242676 70.88483887 64.74422852 69.63686523 65.05517578 68.35107422 C66.20383819 63.60501654 67.35673271 58.85999447 68.51074219 54.11523438 C69.00436357 52.08327675 69.49692087 50.05106025 69.98828125 48.01855469 C72.6820512 36.87915354 75.45177095 25.76622321 78.4453125 14.703125 C78.70031525 13.75460663 78.95531799 12.80608826 79.2180481 11.8288269 C79.45530609 10.96250641 79.69256409 10.09618591 79.93701172 9.20361328 C80.14574921 8.43912872 80.35448669 7.67464417 80.56954956 6.88699341 C81.140625 5.1328125 81.140625 5.1328125 82.140625 4.1328125 C84.93054992 3.90017539 87.70080448 3.72825749 90.49609375 3.59765625 C91.77592888 3.53319054 91.77592888 3.53319054 93.08161926 3.46742249 C94.89992239 3.37695784 96.71834411 3.28885197 98.53686523 3.20288086 C101.27166181 3.07299417 104.00592265 2.93460226 106.74023438 2.79492188 C128.41303919 1.71718383 128.41303919 1.71718383 136.140625 2.1328125 C137.77154986 3.76373736 137.26665502 5.58866885 137.26760864 7.83996582 C137.27042847 8.85800797 137.27324829 9.87605011 137.27615356 10.92494202 C137.27311722 12.61435158 137.27311722 12.61435158 137.27001953 14.33789062 C137.27264801 16.10597328 137.27264801 16.10597328 137.27532959 17.90977478 C137.27898767 21.15142858 137.27811474 24.39304183 137.2749505 27.63469505 C137.27242644 31.02017683 137.27476457 34.40565582 137.27633667 37.7911377 C137.27815823 43.47746266 137.27575241 49.16377466 137.27099609 54.85009766 C137.2655535 61.43309268 137.26731616 68.01605673 137.2728225 74.599051 C137.27735401 80.24150563 137.27800399 85.88395091 137.27538383 91.52640676 C137.27382127 94.90059002 137.27362672 98.27475871 137.27692032 101.64894104 C137.27944512 105.40856046 137.27560868 109.16811948 137.27001953 112.92773438 C137.27204376 114.05400742 137.27406799 115.18028046 137.27615356 116.34068298 C137.27333374 117.35872513 137.27051392 118.37676727 137.26760864 119.42565918 C137.2670431 120.76077168 137.2670431 120.76077168 137.26646614 122.12285614 C137.140625 124.1328125 137.140625 124.1328125 136.140625 125.1328125 C131.50047175 125.386968 126.84941194 125.31804048 122.203125 125.3203125 C120.88892578 125.33255859 119.57472656 125.34480469 118.22070312 125.35742188 C116.96837891 125.35935547 115.71605469 125.36128906 114.42578125 125.36328125 C112.69146851 125.36944458 112.69146851 125.36944458 110.92211914 125.37573242 C108.140625 125.1328125 108.140625 125.1328125 106.140625 123.1328125 C105.86888123 120.57701111 105.86888123 120.57701111 105.83764648 117.30053711 C105.82100449 116.0742308 105.80436249 114.8479245 105.78721619 113.5844574 C105.77864034 112.23469083 105.77014333 110.88492377 105.76171875 109.53515625 C105.74552419 108.14383296 105.72834216 106.75252084 105.71022034 105.36122131 C105.664414 101.68034158 105.62972536 97.9994456 105.59802246 94.31842041 C105.54020883 87.78636682 105.4645067 81.25449769 105.38671875 74.72265625 C105.37488115 73.68077211 105.37488115 73.68077211 105.36280441 72.61783981 C105.24358215 62.43228886 104.94723869 52.28956037 104.140625 42.1328125 C101.82845171 48.51470237 99.5173869 54.89699291 97.20703125 61.27954102 C96.42374757 63.44304118 95.64022588 65.60645519 94.85644531 67.76977539 C93.71874764 70.91008284 92.58197131 74.05072265 91.4453125 77.19140625 C91.07460632 78.21398529 90.70390015 79.23656433 90.32196045 80.29013062 C88.62500013 84.98089342 86.94373833 89.67535758 85.31738281 94.39111328 C84.905905 95.58016014 84.905905 95.58016014 84.4861145 96.79322815 C83.98487592 98.24793692 83.48850306 99.70433534 82.99801636 101.16270447 C82.00496381 104.04399521 81.32615253 105.94728497 79.140625 108.1328125 C69.24213654 110.29174208 58.22047707 109.22166526 48.140625 109.1328125 C43.82204107 99.39161754 40.36546925 89.39830332 36.94677734 79.31469727 C36.015684 76.57048639 35.07665436 73.82908378 34.13671875 71.08789062 C31.20649897 62.50411494 28.30615082 53.94923183 26.140625 45.1328125 C25.480625 45.1328125 24.820625 45.1328125 24.140625 45.1328125 C24.16455322 46.82313599 24.16455322 46.82313599 24.18896484 48.54760742 C24.31690793 62.03257655 23.74717172 75.44060234 22.96875 88.90112305 C22.76334869 92.48503021 22.57270126 96.06953796 22.3828125 99.65429688 C22.25348577 101.95577888 22.12330914 104.25721331 21.9921875 106.55859375 C21.90923935 108.14925407 21.90923935 108.14925407 21.82461548 109.77204895 C21.49880634 115.18859163 20.89428651 119.9898542 19.140625 125.1328125 C14.82813891 125.16167787 10.51567738 125.17956505 6.203125 125.1953125 C4.97142578 125.20369141 3.73972656 125.21207031 2.47070312 125.22070312 C1.30087891 125.22392578 0.13105469 125.22714844 -1.07421875 125.23046875 C-2.70025024 125.23832397 -2.70025024 125.23832397 -4.35913086 125.24633789 C-6.859375 125.1328125 -6.859375 125.1328125 -7.859375 124.1328125 C-8.61105242 108.61875264 -7.48947428 92.92662425 -6.99053955 77.40777588 C-6.89987797 74.56906114 -6.81174497 71.73027055 -6.72369576 68.89147377 C-6.2913298 54.96030464 -5.83332399 41.03016752 -5.32421875 27.1015625 C-5.28482681 26.01376495 -5.24543488 24.92596741 -5.20484924 23.8052063 C-4.32400931 0.20084196 -4.32400931 0.20084196 0 0 Z M36.140625 6.1328125 C37.7053145 16.55566352 40.52143064 26.66134056 43.265625 36.8203125 C43.50950958 37.72523438 43.75339417 38.63015625 44.00466919 39.5625 C47.00087244 50.64517754 50.05152953 61.70517632 53.578125 72.6328125 C53.88314941 73.60951904 54.18817383 74.58622559 54.50244141 75.5925293 C54.79425293 76.46176025 55.08606445 77.33099121 55.38671875 78.2265625 C55.63091553 78.96583984 55.8751123 79.70511719 56.12670898 80.46679688 C57.02791754 82.34317672 57.02791754 82.34317672 59.25024414 82.87695312 C59.87406982 82.96138672 60.49789551 83.04582031 61.140625 83.1328125 C57.87673525 68.74244515 54.18688609 54.4627133 50.48510742 40.17993164 C49.61479722 36.82170761 48.74830128 33.46251198 47.88277912 30.10305119 C47.05028438 26.87413867 46.21443499 23.64609751 45.37890625 20.41796875 C45.06850906 19.21294205 44.75811188 18.00791534 44.43830872 16.76637268 C44.15098373 15.66019089 43.86365875 14.55400909 43.56762695 13.41430664 C43.315439 12.43965958 43.06325104 11.46501251 42.80342102 10.46083069 C42.21899301 8.13520954 42.21899301 8.13520954 41.140625 6.1328125 C39.490625 6.1328125 37.840625 6.1328125 36.140625 6.1328125 Z M127.140625 6.1328125 C127.140625 44.0828125 127.140625 82.0328125 127.140625 121.1328125 C129.120625 121.1328125 131.100625 121.1328125 133.140625 121.1328125 C133.140625 83.1828125 133.140625 45.2328125 133.140625 6.1328125 C131.160625 6.1328125 129.180625 6.1328125 127.140625 6.1328125 Z M17.140625 32.1328125 C16.03738013 50.51727076 15.01808392 68.90469958 14.14935303 87.30184937 C14.06090256 89.17430657 13.97160158 91.04672381 13.88140869 92.9190979 C13.20027178 107.01882035 13.20027178 107.01882035 13.140625 121.1328125 C14.130625 121.1328125 15.120625 121.1328125 16.140625 121.1328125 C16.79503481 110.43200226 17.44715707 99.73105529 18.09638214 89.02992916 C18.39793395 84.06065525 18.70026511 79.09143133 19.00439453 74.12231445 C19.29802025 69.32434083 19.58957633 64.52624547 19.87971497 59.72805977 C19.99061312 57.90005598 20.1022493 56.0720968 20.21464539 54.24418449 C20.3722812 51.67844851 20.52726124 49.11256456 20.68164062 46.54663086 C20.72839432 45.79568649 20.77514801 45.04474213 20.82331848 44.27104187 C21.08424742 39.87994043 21.18302515 35.52873778 21.140625 31.1328125 C19.77169261 31.08010787 19.77169261 31.08010787 17.140625 32.1328125 Z " fill="#EBF3F8" transform="translate(88.859375,129.8671875)"/>
<path d="M0 0 C0.86625 0.64582031 1.7325 1.29164062 2.625 1.95703125 C47.3272491 36.74762095 69.46396429 90.77304496 76.421875 145.69140625 C84.59048689 217.571147 71.16405488 297.4946782 30 358 C29.06414062 359.40185547 29.06414062 359.40185547 28.109375 360.83203125 C21.50791491 370.51119908 14.02088171 379.47116849 6 388 C5.4755127 388.55848633 4.95102539 389.11697266 4.41064453 389.69238281 C-8.53515371 403.36249865 -22.74667097 414.78681474 -39.19238281 423.98681641 C-40.95946143 424.97727781 -42.70985745 425.9933144 -44.4609375 427.01171875 C-67.01506438 439.8548663 -92.51941124 447.02367111 -117.875 451.8125 C-118.90657227 452.0074707 -119.93814453 452.20244141 -121.00097656 452.40332031 C-138.22522698 455.46384992 -155.28079133 456.3779963 -172.75 456.3125 C-173.7622464 456.31067719 -174.7744928 456.30885437 -175.81741333 456.30697632 C-190.40776106 456.2627531 -204.65220844 455.87236061 -219 453 C-219.91007813 452.82839355 -220.82015625 452.65678711 -221.7578125 452.47998047 C-277.70254306 441.81885079 -333.25524349 416.80881417 -369 371 C-369.6482373 370.17435547 -369.6482373 370.17435547 -370.30957031 369.33203125 C-378.00458491 359.45667005 -384.25756124 349.11219846 -390 338 C-390.4110498 337.21979492 -390.82209961 336.43958984 -391.24560547 335.63574219 C-411.73131779 296.42412102 -420.21638136 251.59076882 -420.25 207.625 C-420.25101212 206.4206279 -420.25101212 206.4206279 -420.25204468 205.19192505 C-420.17081496 143.62663354 -406.10672091 80.49944785 -365 33 C-364.31808594 32.20722656 -363.63617188 31.41445312 -362.93359375 30.59765625 C-321.92152699 -16.00353195 -267.61835099 -39.77451387 -205.97949219 -43.81640625 C-204.99625977 -43.87699219 -204.01302734 -43.93757813 -203 -44 C-201.9884082 -44.06316406 -200.97681641 -44.12632813 -199.93457031 -44.19140625 C-133.00707604 -48.09776109 -54.98663177 -42.25535197 0 0 Z M-329 4 C-329.54994629 4.43715332 -330.09989258 4.87430664 -330.66650391 5.32470703 C-352.31031366 22.75809509 -369.66119469 43.26079477 -384 67 C-384.35900391 67.59393555 -384.71800781 68.18787109 -385.08789062 68.79980469 C-403.93006398 100.59372053 -411.15018989 137.70845677 -415 174 C-415.09498779 174.89267578 -415.18997559 175.78535156 -415.2878418 176.70507812 C-421.30015615 239.98346687 -408.06304197 314.22703592 -368 365 C-366.85917969 366.4540625 -366.85917969 366.4540625 -365.6953125 367.9375 C-363.50607159 370.6645821 -361.27251403 373.34204189 -359 376 C-358.27039063 376.85335938 -357.54078125 377.70671875 -356.7890625 378.5859375 C-350.04025243 386.28194899 -342.80481633 393.67076907 -334 399 C-333.67 398.01 -333.34 397.02 -333 396 C-330.92578125 395.078125 -330.92578125 395.078125 -328.3125 394.25 C-322.39229407 392.06172904 -318.81681276 388.63362553 -316 383 C-314.58752092 371.16759331 -320.0573055 361.51148215 -325.4140625 351.359375 C-329.16920975 343.40512221 -330.0882303 335.69654132 -329 327 C-327.44695028 322.69359399 -325.4545788 318.85804844 -323 315 C-322.33291016 313.94039063 -322.33291016 313.94039063 -321.65234375 312.859375 C-316.50738224 307.06977292 -306.65267873 303.58388945 -299 303 C-288.42480088 302.90653233 -278.50494874 304.78546701 -270.53515625 312.15234375 C-265.2759657 318.48210743 -262.63799028 326.00949083 -262.72363281 334.14257812 C-263.22167373 339.29193409 -265.0570213 343.93770345 -266.875 348.75 C-267.23980469 349.75160156 -267.60460937 350.75320313 -267.98046875 351.78515625 C-268.97896035 354.52646956 -269.9875336 357.26382376 -271 360 C-274.04028951 368.28116953 -274.15162975 375.87865794 -271 384.1875 C-266.43663279 393.95336148 -260.10843711 400.20361864 -250 404 C-239.34741632 407.64532187 -225.66742834 407.84183566 -215.28125 403.2578125 C-211.50417491 401.17524712 -208.23511395 398.84903039 -205 396 C-204.33226562 395.44828125 -203.66453125 394.8965625 -202.9765625 394.328125 C-193.93431356 386.22128112 -188.67823751 374.29037236 -187.79882812 362.24438477 C-187.21808489 345.24198799 -189.17817338 331.79773586 -196.01000977 316.24609375 C-203.13734941 299.76608412 -207.59256506 280.29889071 -201 263 C-195.86259368 251.63212218 -188.04614609 243.60268027 -176.3125 238.9296875 C-160.24811961 233.88508024 -142.64624695 234.78513865 -127.5 242.3125 C-115.28609626 248.92092261 -108.19889062 257.7956171 -103.77734375 271.1171875 C-97.19564797 295.52568741 -103.53835 317.20805078 -113.5625 339.5625 C-120.5654054 355.1879357 -126.01796771 368.12561855 -120 385 C-114.85585962 396.47398687 -107.49562246 403.28316517 -96 408.3125 C-86.44918805 410.50122774 -77.50392614 410.61207978 -68.671875 405.70703125 C-66.62965597 404.25331427 -64.81826682 402.72407732 -63 401 C-62.46890625 400.50886719 -61.9378125 400.01773437 -61.390625 399.51171875 C-51.69782865 389.44420089 -48.60261531 375.42875389 -48.625 361.9375 C-48.62661133 360.92252441 -48.62822266 359.90754883 -48.62988281 358.86181641 C-48.76808394 350.32450948 -50.23093536 343.10068742 -53 335 C-53.73466293 332.64754275 -54.46402763 330.29342285 -55.1875 327.9375 C-55.51105469 326.93589844 -55.83460938 325.93429687 -56.16796875 324.90234375 C-59.37417483 313.718254 -59.22774916 301.07355214 -53.74609375 290.60546875 C-50.44172539 285.75245909 -46.7404283 282.47845689 -41 281 C-32.48749039 279.82940157 -25.74791526 280.57420313 -18.41015625 285.15625 C-11.34770098 290.55897105 -6.49721528 297.13156095 -5 306 C-4.29421022 316.22004992 -4.36268876 326.6508936 -6.5 336.6875 C-8.89169444 347.94791786 -8.77414292 357.28764844 -4 368 C-1.60578249 371.32903839 0.81882568 372.74322297 4.875 373.625 C13.55176952 371.8896461 19.76452794 365.13643883 24.53735352 358.04199219 C24.93752686 357.43000977 25.3377002 356.81802734 25.75 356.1875 C26.39569946 355.20571777 26.39569946 355.20571777 27.05444336 354.20410156 C31.73508825 346.99571974 35.98078669 339.59423548 40 332 C40.35384766 331.34773438 40.70769531 330.69546875 41.07226562 330.0234375 C76.65065067 263.67983102 84.16839034 174.22636159 63.1875 102.6875 C48.43260373 54.91201523 18.28426998 12.03529643 -26.54931641 -11.76904297 C-70.20703382 -33.6979343 -119.02027206 -40.43274518 -167.36303711 -40.26074219 C-170.93165097 -40.25001758 -174.49976052 -40.26071784 -178.06835938 -40.2734375 C-231.85720658 -40.30555011 -285.82076274 -30.42013295 -329 4 Z M-191.375 253.3125 C-200.44515298 264.97787016 -201.97379983 277.22953919 -200.67578125 291.5859375 C-199.36412679 300.46053577 -196.43895137 308.22864403 -193 316.5 C-185.39260388 334.91726061 -180.70702014 356.98247313 -186.4375 376.75 C-192.05050849 390.05858196 -201.52223796 400.6252138 -214.6015625 406.76953125 C-228.62963555 411.84866115 -243.8198561 410.64091689 -257.3125 404.46875 C-266.45682458 399.47127029 -271.82118168 391.94223179 -275.375 382.25 C-277.74028923 370.02933896 -275.25771217 359.96434864 -270.65625 348.71484375 C-265.91942412 337.08231693 -265.91942412 337.08231693 -267.0625 324.875 C-270.45270695 317.2624444 -275.3786548 311.32711603 -283.1796875 308.09765625 C-292.393491 304.90373395 -301.72813474 304.55804522 -310.68359375 308.68359375 C-319.50339461 313.69585832 -323.83367536 320.50102609 -327 330 C-327.95451479 338.78153611 -324.36387244 347.15128438 -320.73046875 354.984375 C-311.50015058 374.93713045 -311.50015058 374.93713045 -314 386 C-318.3958609 393.50250802 -322.77793744 396.23102516 -330.98828125 398.484375 C-331.65214844 398.65453125 -332.31601562 398.8246875 -333 399 C-328.1105194 405.37114139 -322.76736243 409.02688262 -315.80712891 412.96923828 C-314.19150635 413.89076739 -312.59074218 414.83823387 -310.9921875 415.7890625 C-293.50570958 426.08811591 -275.32384698 433.84598115 -256 440 C-254.74960938 440.39832031 -253.49921875 440.79664063 -252.2109375 441.20703125 C-248.82360307 442.22161471 -245.42742842 443.13029921 -242 444 C-241.2668457 444.19158691 -240.53369141 444.38317383 -239.77832031 444.58056641 C-174.55797066 461.41712749 -98.83841834 454.14796234 -40.08984375 419.7578125 C-24.81154574 410.43925177 1.71095678 393.66067021 9 377 C8.11248047 376.85304688 8.11248047 376.85304688 7.20703125 376.703125 C2.17337988 375.75059065 -1.50760634 374.97744833 -5 371 C-12.81925138 356.8053931 -11.01532174 344.73475872 -8.33398438 329.34960938 C-6.12053306 315.61067824 -6.81198351 303.36980369 -14.75 291.625 C-18.78198417 286.54654665 -24.75369701 283.60551974 -31.1640625 282.69140625 C-37.3000761 282.36999601 -41.09946424 283.45803315 -46.0234375 287.1640625 C-51.27917928 292.04587799 -54.03813858 297.94634956 -55 305 C-55.16048828 306.09441406 -55.16048828 306.09441406 -55.32421875 307.2109375 C-56.1238885 318.47739576 -51.34389017 330.21692389 -47.7109375 340.73046875 C-42.152467 357.46586374 -43.66517182 375.5569371 -51.3125 391.3125 C-56.43944138 401.25431972 -62.46328999 407.74421096 -73.140625 411.81640625 C-85.25913456 415.22771898 -97.00770677 411.90416423 -107.7265625 406.03515625 C-117.34161932 400.05729873 -122.13784028 390.63948211 -125.6328125 380.08984375 C-128.93774828 361.27983694 -121.32011893 345.49336626 -113.5534668 328.85668945 C-105.48172732 311.45465537 -101.28797952 291.45084599 -107.03515625 272.59375 C-111.7760492 259.84900134 -119.44130073 249.82300155 -132 244 C-152.4111835 236.06515241 -175.45035467 236.08788362 -191.375 253.3125 Z " fill="#C5C3F0" transform="translate(427,50)"/>
<path d="M0 0 C4.47915328 -0.02886338 8.95828291 -0.04675187 13.4375 -0.0625 C14.71689453 -0.07087891 15.99628906 -0.07925781 17.31445312 -0.08789062 C19.13686523 -0.09272461 19.13686523 -0.09272461 20.99609375 -0.09765625 C22.12200928 -0.10289307 23.2479248 -0.10812988 24.40795898 -0.11352539 C27 0 27 0 28 1 C28.15873955 3.21687994 28.25133837 5.43855298 28.31640625 7.66015625 C28.33718735 8.32462265 28.35796844 8.98908905 28.37937927 9.6736908 C28.44493658 11.80318543 28.50378785 13.93280668 28.5625 16.0625 C28.60567939 17.50326847 28.64929349 18.94402399 28.69335938 20.38476562 C28.80062393 23.9230404 28.90187371 27.46145869 29 31 C43.45161883 15.89338646 43.45161883 15.89338646 57 0 C62.0872112 0.48915492 65.43048443 3.03036832 69.5 5.875 C70.80139774 6.76922775 72.10346727 7.66247872 73.40625 8.5546875 C74.01855469 8.97588867 74.63085938 9.39708984 75.26171875 9.83105469 C77.45786214 11.30789943 79.71180454 12.67108648 82 14 C81.50566614 18.25944817 79.10076304 20.22912667 76.1171875 23.140625 C75.62469513 23.62650085 75.13220276 24.11237671 74.62478638 24.61297607 C73.04847772 26.16592671 71.46240674 27.70840239 69.875 29.25 C67.80604302 31.27213929 65.74152065 33.29872374 63.6796875 35.328125 C63.17951111 35.81939377 62.67933472 36.31066254 62.16400146 36.81681824 C58.77466582 40.16874718 55.60682327 43.64606222 52.52001953 47.27490234 C49.31087353 50.91702018 45.63314313 54.10571556 42.0625 57.38671875 C39.71611332 59.76259323 39.71611332 59.76259323 40.1489563 62.4138031 C41.13969904 65.42452489 42.30123494 66.77985207 44.55419922 68.99243164 C45.30522919 69.73993179 46.05625916 70.48743195 46.83004761 71.25758362 C47.64667877 72.05043259 48.46330994 72.84328156 49.3046875 73.66015625 C50.13960724 74.48704453 50.97452698 75.3139328 51.83474731 76.1658783 C54.50555916 78.8076816 57.18962789 81.43550555 59.875 84.0625 C62.55061876 86.69558378 65.22340869 89.3314782 67.89382935 91.96983337 C69.55631244 93.61065888 71.22227403 95.24796907 72.89205933 96.88136292 C73.64939362 97.62571091 74.40672791 98.3700589 75.18701172 99.13696289 C76.18509354 100.11361656 76.18509354 100.11361656 77.20333862 101.11000061 C79.00659793 103.00694069 80.62507689 104.7687547 82 107 C80.63142833 111.10571502 77.83769456 112.28501117 74.3125 114.4375 C73.07913807 115.20656795 71.84606266 115.9760956 70.61328125 116.74609375 C70.00693848 117.11718262 69.4005957 117.48827148 68.77587891 117.87060547 C67.06683895 118.95749285 65.42725282 120.15130457 63.79296875 121.34765625 C61 123 61 123 59.13964844 122.89697266 C56.08789307 121.61763112 54.29573778 119.6488491 51.97265625 117.30078125 C51.50186142 116.82811325 51.03106659 116.35544525 50.54600525 115.86845398 C49.5516375 114.86737358 48.56086933 113.86270657 47.57348633 112.85473633 C46.07806302 111.32838489 44.57245131 109.8127468 43.06445312 108.29882812 C38.49445643 103.68551885 34.10915951 99.02875614 30 94 C30.00785522 95.30988892 30.00785522 95.30988892 30.01586914 96.64624023 C30.03287751 99.87589273 30.04543369 103.10552245 30.05493164 106.33520508 C30.0599708 107.73495228 30.06680216 109.1346942 30.07543945 110.53442383 C30.0875232 112.54245777 30.09269807 114.55052957 30.09765625 116.55859375 C30.10551147 118.37315063 30.10551147 118.37315063 30.11352539 120.22436523 C30 123 30 123 29 124 C26.85441173 124.08775605 24.70595579 124.10695219 22.55859375 124.09765625 C21.25341797 124.09443359 19.94824219 124.09121094 18.60351562 124.08789062 C17.2148431 124.07953401 15.82617123 124.07106905 14.4375 124.0625 C13.04492344 124.05748666 11.65234519 124.05292347 10.25976562 124.04882812 C6.8398013 124.03699434 3.41992156 124.0205088 0 124 C-0.14588595 117.30044559 -0.28779765 110.60081451 -0.42724609 103.90112305 C-0.47488412 101.63320108 -0.52335477 99.3652964 -0.57275391 97.09741211 C-1.10230806 72.73251761 -1.01939239 48.42688308 -0.5 24.0625 C-0.45160799 21.71029087 -0.40342992 19.35807733 -0.35546875 17.00585938 C-0.23943248 11.33718662 -0.12080526 5.66857303 0 0 Z M10.125 3.5 C8.97257812 3.5928125 7.82015625 3.685625 6.6328125 3.78125 C5.32957031 3.88953125 5.32957031 3.88953125 4 4 C4 4.99 4 5.98 4 7 C5.37285156 7.16435547 5.37285156 7.16435547 6.7734375 7.33203125 C8.55621094 7.56986328 8.55621094 7.56986328 10.375 7.8125 C12.15003906 8.03873047 12.15003906 8.03873047 13.9609375 8.26953125 C17 9 17 9 19 12 C19.39477539 14.5402832 19.39477539 14.5402832 19.59765625 17.55078125 C19.67693359 18.64197266 19.75621094 19.73316406 19.83789062 20.85742188 C19.94907227 22.56768555 19.94907227 22.56768555 20.0625 24.3125 C20.21772385 26.55875585 20.3752052 28.80485706 20.53515625 31.05078125 C20.600979 32.04762939 20.66680176 33.04447754 20.73461914 34.0715332 C21.0076026 37.08389442 21.46666343 40.02365571 22 43 C27.33330306 42.83054383 29.57904837 40.94713627 33.09985352 37.28707886 C34.00948853 36.30579514 34.00948853 36.30579514 34.9375 35.3046875 C36.25759913 33.93599209 37.57791827 32.56750885 38.8984375 31.19921875 C40.95792729 29.03384893 43.0112991 26.86299638 45.05957031 24.68701172 C47.04569542 22.58643034 49.05265247 20.5075433 51.0625 18.4296875 C51.97213501 17.44233109 51.97213501 17.44233109 52.90014648 16.43502808 C54.5371181 14.75108066 56.03205976 13.28167231 58 12 C61.79516032 11.98007274 63.26738777 12.3606539 66.1171875 14.84765625 C66.98730469 15.94400391 66.98730469 15.94400391 67.875 17.0625 C68.76832031 18.16271484 68.76832031 18.16271484 69.6796875 19.28515625 C70.11539063 19.85105469 70.55109375 20.41695312 71 21 C72.98 19.35 74.96 17.7 77 16 C73.28907079 12.8411676 69.49789353 10.51404508 65.1875 8.25 C64.02605469 7.63640625 62.86460937 7.0228125 61.66796875 6.390625 C60.78753906 5.93171875 59.90710938 5.4728125 59 5 C58.175 5.88558594 57.35 6.77117187 56.5 7.68359375 C54.70912977 9.60566327 52.9168278 11.52633591 51.12133789 13.4440918 C47.62220048 17.18193546 44.14020781 20.93370318 40.68359375 24.7109375 C39.26830644 26.24486297 37.85294359 27.77871874 36.4375 29.3125 C35.77169922 30.04718506 35.10589844 30.78187012 34.41992188 31.53881836 C28.58629123 37.82921932 28.58629123 37.82921932 24 39 C24.00523682 38.40687012 24.01047363 37.81374023 24.01586914 37.20263672 C24.10341746 25.7504305 24.09047353 14.41102662 23 3 C18.67693289 2.94743991 14.43343521 3.148291 10.125 3.5 Z M34 65 C33.66864137 68.55828188 33.52148509 70.36849053 35.72265625 73.2734375 C36.49480469 73.96695313 37.26695312 74.66046875 38.0625 75.375 C40.93460963 77.99672058 43.60873072 80.65110372 46.140625 83.59765625 C50.77685579 88.96070855 55.71438451 94.01314163 60.6875 99.0625 C61.39193237 99.79521118 61.39193237 99.79521118 62.1105957 100.54272461 C63.48212196 101.9686859 64.87166836 103.37724654 66.26171875 104.78515625 C67.07600342 105.61926025 67.89028809 106.45336426 68.72924805 107.31274414 C70.83978736 109.27777429 70.83978736 109.27777429 73.29614258 108.76342773 C73.85841553 108.51149658 74.42068848 108.25956543 75 108 C73.58261511 104.74792908 71.87473588 102.68638933 69.3125 100.25 C66.71273345 97.77006237 64.30469434 95.21284546 61.97265625 92.484375 C57.45568984 87.27747635 52.58131321 82.43105041 47.70019531 77.56982422 C46.10361866 75.97869157 44.51256389 74.38217285 42.921875 72.78515625 C41.90917535 71.773116 40.8961663 70.76138524 39.8828125 69.75 C38.96902832 68.83734375 38.05524414 67.9246875 37.11376953 66.984375 C35.36170004 64.88592674 35.36170004 64.88592674 34 65 Z M22 88 C22 98.56 22 109.12 22 120 C22.99 120 23.98 120 25 120 C25 109.44 25 98.88 25 88 C24.01 88 23.02 88 22 88 Z " fill="#ECF4F8" transform="translate(362,133)"/>
<path d="M0 0 C9.9 0.33 19.8 0.66 30 1 C30.68827433 4.44137164 31.15333927 7.25978686 31.29663086 10.68920898 C31.33567032 11.61443863 31.37470978 12.53966827 31.41493225 13.49293518 C31.45202805 14.50460251 31.48912384 15.51626984 31.52734375 16.55859375 C31.56866928 17.6411998 31.60999481 18.72380585 31.65257263 19.83921814 C32.18279199 34.78827927 32.34312233 49.74596674 32.53222656 64.70239258 C32.59259438 69.40864844 32.65801182 74.11483681 32.72252655 78.82103729 C32.81876561 85.88064852 32.90881966 92.94031351 33 100 C44.55 100 56.1 100 68 100 C69.20270964 102.40541929 69.20316663 104.10366591 69.31640625 106.7890625 C69.35830078 107.73007813 69.40019531 108.67109375 69.44335938 109.640625 C69.48267578 110.62546875 69.52199219 111.6103125 69.5625 112.625 C69.60568359 113.61757812 69.64886719 114.61015625 69.69335938 115.6328125 C69.79961069 118.08839838 69.90164964 120.54408703 70 123 C28.88243863 124.0963128 28.88243863 124.0963128 12.4375 124.125 C10.83672607 124.13176758 10.83672607 124.13176758 9.20361328 124.13867188 C8.24825684 124.13673828 7.29290039 124.13480469 6.30859375 124.1328125 C5.49189209 124.13168457 4.67519043 124.13055664 3.83374023 124.12939453 C2 124 2 124 1 123 C0.87605656 121.10339884 0.82199363 119.20220822 0.79467773 117.30175781 C0.77473755 116.06966583 0.75479736 114.83757385 0.73425293 113.56814575 C0.71719828 112.19647425 0.70031732 110.82480058 0.68359375 109.453125 C0.66289848 108.02830514 0.64185458 106.6034903 0.6204834 105.17868042 C0.56438146 101.33346504 0.5151216 97.48819 0.46757126 93.64286041 C0.43762456 91.25991153 0.40578405 88.87699544 0.37332153 86.49407959 C-0.01778195 57.66146977 -0.11099972 28.83525977 0 0 Z M4 4 C4 5.32 4 6.64 4 8 C4.97582031 8.06058594 5.95164062 8.12117187 6.95703125 8.18359375 C8.86548828 8.30927734 8.86548828 8.30927734 10.8125 8.4375 C12.07707031 8.51871094 13.34164063 8.59992188 14.64453125 8.68359375 C18 9 18 9 21 10 C21.92794618 18.451442 22.19093298 26.83829826 22.28125 35.3359375 C22.29937261 36.70480981 22.31797876 38.07367579 22.33703613 39.4425354 C22.39607958 43.75330281 22.4483635 48.06413848 22.5 52.375 C22.56833488 58.02871115 22.6399959 63.68236116 22.71875 69.3359375 C22.72813599 70.01697289 22.73752197 70.69800827 22.74719238 71.39968109 C22.91211898 82.9482089 23.32705092 94.47003028 24 106 C37.68347222 106.74843041 51.29525828 107.13248408 65 107 C64.67 106.01 64.34 105.02 64 104 C52.78 104 41.56 104 30 104 C29.07939527 99.39697634 28.7981854 95.12453745 28.71875 90.46533203 C28.69167969 89.19363159 28.69167969 89.19363159 28.6640625 87.89624023 C28.62554885 86.06022228 28.58908483 84.22416043 28.55444336 82.38806534 C28.49945187 79.47881416 28.43892099 76.56972443 28.37695312 73.66061401 C28.246345 67.48217281 28.1227378 61.30360187 28 55.125 C27.85769721 47.97039361 27.71250498 40.81586787 27.56030273 33.66146469 C27.5009102 30.80163988 27.44663829 27.94174748 27.39257812 25.08181763 C27.35571633 23.31902557 27.31861933 21.5562384 27.28125 19.79345703 C27.26771484 19.0036142 27.25417969 18.21377136 27.24023438 17.3999939 C27.22347656 16.65715149 27.20671875 15.91430908 27.18945312 15.1489563 C27.17692505 14.51296068 27.16439697 13.87696507 27.15148926 13.22169685 C26.94075314 10.13110301 26.43809086 7.06663601 26 4 C18.74 4 11.48 4 4 4 Z " fill="#E9F1F7" transform="translate(284,133)"/>
<path d="M0 0 C8.03695915 0.01613847 16.04914205 0.20016181 24.078125 0.5703125 C25.37218262 0.62904541 25.37218262 0.62904541 26.69238281 0.68896484 C28.3618042 0.7727892 30.03069231 0.86817145 31.69873047 0.97607422 C33.35252077 1.08222633 35.00824221 1.16117917 36.66455078 1.21533203 C37.46231934 1.26157715 38.26008789 1.30782227 39.08203125 1.35546875 C39.79174072 1.38519775 40.5014502 1.41492676 41.23266602 1.44555664 C44.19472888 2.51250571 44.80646411 4.35721908 46.140625 7.1328125 C46.78711466 9.0622912 47.35794283 11.01812725 47.8671875 12.98828125 C48.17261475 14.15270752 48.47804199 15.31713379 48.79272461 16.5168457 C49.11378174 17.77198975 49.43483887 19.02713379 49.765625 20.3203125 C50.1079698 21.63327479 50.45116698 22.94601508 50.79516602 24.25854492 C51.52801361 27.05905392 52.25665209 29.86060799 52.98193359 32.66308594 C54.79506898 39.6651527 56.63267759 46.66076893 58.47601318 53.65493774 C59.07345406 55.92754468 59.66609773 58.20136515 60.25830078 60.4753418 C60.62385216 61.86772076 60.98956634 63.26005699 61.35546875 64.65234375 C61.67636475 65.88057861 61.99726074 67.10881348 62.32788086 68.37426758 C62.86832422 71.01999169 62.86832422 71.01999169 64.140625 72.1328125 C64.44242676 70.88483887 64.74422852 69.63686523 65.05517578 68.35107422 C66.20383819 63.60501654 67.35673271 58.85999447 68.51074219 54.11523438 C69.00436357 52.08327675 69.49692087 50.05106025 69.98828125 48.01855469 C72.6820512 36.87915354 75.45177095 25.76622321 78.4453125 14.703125 C78.70031525 13.75460663 78.95531799 12.80608826 79.2180481 11.8288269 C79.45530609 10.96250641 79.69256409 10.09618591 79.93701172 9.20361328 C80.14574921 8.43912872 80.35448669 7.67464417 80.56954956 6.88699341 C81.140625 5.1328125 81.140625 5.1328125 82.140625 4.1328125 C84.93054992 3.90017539 87.70080448 3.72825749 90.49609375 3.59765625 C91.77592888 3.53319054 91.77592888 3.53319054 93.08161926 3.46742249 C94.89992239 3.37695784 96.71834411 3.28885197 98.53686523 3.20288086 C101.27166181 3.07299417 104.00592265 2.93460226 106.74023438 2.79492188 C128.41303919 1.71718383 128.41303919 1.71718383 136.140625 2.1328125 C137.77154986 3.76373736 137.26665502 5.58866885 137.26760864 7.83996582 C137.27042847 8.85800797 137.27324829 9.87605011 137.27615356 10.92494202 C137.27311722 12.61435158 137.27311722 12.61435158 137.27001953 14.33789062 C137.27264801 16.10597328 137.27264801 16.10597328 137.27532959 17.90977478 C137.27898767 21.15142858 137.27811474 24.39304183 137.2749505 27.63469505 C137.27242644 31.02017683 137.27476457 34.40565582 137.27633667 37.7911377 C137.27815823 43.47746266 137.27575241 49.16377466 137.27099609 54.85009766 C137.2655535 61.43309268 137.26731616 68.01605673 137.2728225 74.599051 C137.27735401 80.24150563 137.27800399 85.88395091 137.27538383 91.52640676 C137.27382127 94.90059002 137.27362672 98.27475871 137.27692032 101.64894104 C137.27944512 105.40856046 137.27560868 109.16811948 137.27001953 112.92773438 C137.27204376 114.05400742 137.27406799 115.18028046 137.27615356 116.34068298 C137.27333374 117.35872513 137.27051392 118.37676727 137.26760864 119.42565918 C137.2670431 120.76077168 137.2670431 120.76077168 137.26646614 122.12285614 C137.140625 124.1328125 137.140625 124.1328125 136.140625 125.1328125 C131.50047175 125.386968 126.84941194 125.31804048 122.203125 125.3203125 C120.88892578 125.33255859 119.57472656 125.34480469 118.22070312 125.35742188 C116.96837891 125.35935547 115.71605469 125.36128906 114.42578125 125.36328125 C112.69146851 125.36944458 112.69146851 125.36944458 110.92211914 125.37573242 C108.140625 125.1328125 108.140625 125.1328125 106.140625 123.1328125 C105.86888123 120.57701111 105.86888123 120.57701111 105.83764648 117.30053711 C105.82100449 116.0742308 105.80436249 114.8479245 105.78721619 113.5844574 C105.77864034 112.23469083 105.77014333 110.88492377 105.76171875 109.53515625 C105.74552419 108.14383296 105.72834216 106.75252084 105.71022034 105.36122131 C105.664414 101.68034158 105.62972536 97.9994456 105.59802246 94.31842041 C105.54020883 87.78636682 105.4645067 81.25449769 105.38671875 74.72265625 C105.37488115 73.68077211 105.37488115 73.68077211 105.36280441 72.61783981 C105.24358215 62.43228886 104.94723869 52.28956037 104.140625 42.1328125 C101.82845171 48.51470237 99.5173869 54.89699291 97.20703125 61.27954102 C96.42374757 63.44304118 95.64022588 65.60645519 94.85644531 67.76977539 C93.71874764 70.91008284 92.58197131 74.05072265 91.4453125 77.19140625 C91.07460632 78.21398529 90.70390015 79.23656433 90.32196045 80.29013062 C88.62500013 84.98089342 86.94373833 89.67535758 85.31738281 94.39111328 C84.905905 95.58016014 84.905905 95.58016014 84.4861145 96.79322815 C83.98487592 98.24793692 83.48850306 99.70433534 82.99801636 101.16270447 C82.00496381 104.04399521 81.32615253 105.94728497 79.140625 108.1328125 C69.24213654 110.29174208 58.22047707 109.22166526 48.140625 109.1328125 C43.82204107 99.39161754 40.36546925 89.39830332 36.94677734 79.31469727 C36.015684 76.57048639 35.07665436 73.82908378 34.13671875 71.08789062 C31.20649897 62.50411494 28.30615082 53.94923183 26.140625 45.1328125 C25.480625 45.1328125 24.820625 45.1328125 24.140625 45.1328125 C24.16455322 46.82313599 24.16455322 46.82313599 24.18896484 48.54760742 C24.31690793 62.03257655 23.74717172 75.44060234 22.96875 88.90112305 C22.76334869 92.48503021 22.57270126 96.06953796 22.3828125 99.65429688 C22.25348577 101.95577888 22.12330914 104.25721331 21.9921875 106.55859375 C21.90923935 108.14925407 21.90923935 108.14925407 21.82461548 109.77204895 C21.49880634 115.18859163 20.89428651 119.9898542 19.140625 125.1328125 C14.82813891 125.16167787 10.51567738 125.17956505 6.203125 125.1953125 C4.97142578 125.20369141 3.73972656 125.21207031 2.47070312 125.22070312 C1.30087891 125.22392578 0.13105469 125.22714844 -1.07421875 125.23046875 C-2.70025024 125.23832397 -2.70025024 125.23832397 -4.35913086 125.24633789 C-6.859375 125.1328125 -6.859375 125.1328125 -7.859375 124.1328125 C-8.61105242 108.61875264 -7.48947428 92.92662425 -6.99053955 77.40777588 C-6.89987797 74.56906114 -6.81174497 71.73027055 -6.72369576 68.89147377 C-6.2913298 54.96030464 -5.83332399 41.03016752 -5.32421875 27.1015625 C-5.28482681 26.01376495 -5.24543488 24.92596741 -5.20484924 23.8052063 C-4.32400931 0.20084196 -4.32400931 0.20084196 0 0 Z M1.140625 5.1328125 C-1.06267376 18.11359256 -1.24311535 31.18869546 -1.421875 44.3203125 C-1.48131947 48.12638302 -1.54591735 51.9323431 -1.61328125 55.73828125 C-1.62920319 56.67409531 -1.64512512 57.60990936 -1.66152954 58.57408142 C-1.80710706 66.25249063 -2.12393852 73.91751952 -2.52601624 81.58659363 C-2.86257827 88.19682371 -2.9338791 94.78339392 -2.8221283 101.4009552 C-2.77672651 105.13962056 -3.05179508 108.48931239 -3.859375 112.1328125 C-3.92204012 113.56909707 -3.94623847 115.007868 -3.921875 116.4453125 C-3.90125 117.6621875 -3.880625 118.8790625 -3.859375 120.1328125 C1.19513365 121.16963479 6.01218723 121.22512438 11.140625 121.1328125 C12.80729167 121.1328125 14.47395833 121.1328125 16.140625 121.1328125 C16.79503481 110.43200226 17.44715707 99.73105529 18.09638214 89.02992916 C18.39793395 84.06065525 18.70026511 79.09143133 19.00439453 74.12231445 C19.29802025 69.32434083 19.58957633 64.52624547 19.87971497 59.72805977 C19.99061312 57.90005598 20.1022493 56.0720968 20.21464539 54.24418449 C20.3722812 51.67844851 20.52726124 49.11256456 20.68164062 46.54663086 C20.75177116 45.42021431 20.75177116 45.42021431 20.82331848 44.27104187 C21.08424742 39.87994043 21.18302515 35.52873778 21.140625 31.1328125 C22.460625 31.1328125 23.780625 31.1328125 25.140625 31.1328125 C25.27597656 31.69484375 25.41132812 32.256875 25.55078125 32.8359375 C29.27744049 47.38552927 34.70099136 61.48881449 40.4753418 75.33374023 C41.98831169 79.00776797 43.32305977 82.57520666 44.2421875 86.4453125 C44.97636876 89.45864775 45.72284442 91.70367351 47.203125 94.3828125 C48.2973038 96.38123718 49.11364566 98.01809718 49.63671875 100.2421875 C50.0314392 102.35772508 50.0314392 102.35772508 52.140625 104.1328125 C54.58873934 104.64183135 54.58873934 104.64183135 57.453125 104.8203125 C58.39800781 104.90667969 59.34289062 104.99304688 60.31640625 105.08203125 C65.95306825 105.15687967 71.52886136 104.62702584 77.140625 104.1328125 C77.36089355 103.44058594 77.58116211 102.74835938 77.80810547 102.03515625 C82.1583883 88.45422189 86.77547748 75.14948677 92.38574219 62.03466797 C95.52792714 54.67378598 98.45547461 47.25173392 101.265625 39.7578125 C101.65621094 38.72245361 102.04679687 37.68709473 102.44921875 36.62036133 C104.37815741 31.99547992 104.37815741 31.99547992 105.140625 27.1328125 C106.460625 27.1328125 107.780625 27.1328125 109.140625 27.1328125 C109.13192383 28.76101929 109.13192383 28.76101929 109.12304688 30.42211914 C109.08558331 40.67841948 109.2550363 50.91290128 109.56732178 61.16397095 C109.90462554 72.2367183 110.19530136 83.29628923 110.1015625 94.375 C110.09566101 95.18826248 110.08975952 96.00152496 110.0836792 96.83943176 C110.05277287 100.72428417 110.00350466 104.60771082 109.92773438 108.49194336 C109.91229714 109.87873841 109.8972978 111.26553843 109.8828125 112.65234375 C109.8607373 113.85995361 109.83866211 115.06756348 109.81591797 116.31176758 C109.92307129 117.2427124 110.03022461 118.17365723 110.140625 119.1328125 C113.64520265 121.4691976 115.07569037 121.34808446 119.203125 121.2578125 C120.79833984 121.23074219 120.79833984 121.23074219 122.42578125 121.203125 C123.32167969 121.17992187 124.21757812 121.15671875 125.140625 121.1328125 C127.80729167 121.1328125 130.47395833 121.1328125 133.140625 121.1328125 C133.140625 83.1828125 133.140625 45.2328125 133.140625 6.1328125 C125.37610711 5.51229675 125.37610711 5.51229675 118.140625 7.1328125 C118.140625 7.7928125 118.140625 8.4528125 118.140625 9.1328125 C117.480625 9.1328125 116.820625 9.1328125 116.140625 9.1328125 C115.645625 7.6478125 115.645625 7.6478125 115.140625 6.1328125 C110.89036882 6.27171852 106.64049658 6.42013244 102.390625 6.5703125 C101.1840625 6.60962891 99.9775 6.64894531 98.734375 6.68945312 C97.57421875 6.73134766 96.4140625 6.77324219 95.21875 6.81640625 C94.15043945 6.85306396 93.08212891 6.88972168 91.98144531 6.92749023 C89.55751348 7.10268159 87.46175788 7.44479737 85.140625 8.1328125 C84.46872844 11.04836365 83.80293192 13.96508201 83.140625 16.8828125 C82.85445312 18.1203125 82.85445312 18.1203125 82.5625 19.3828125 C82.29179687 20.58164063 82.29179687 20.58164063 82.015625 21.8046875 C81.84804687 22.5378418 81.68046875 23.27099609 81.5078125 24.02636719 C81.02614057 26.43320739 81.02614057 26.43320739 81.140625 30.1328125 C80.480625 30.4628125 79.820625 30.7928125 79.140625 31.1328125 C78.74849462 33.68773073 78.74849462 33.68773073 78.640625 36.6328125 C78.484375 39.6640625 78.484375 39.6640625 78.140625 42.1328125 C77.150625 42.6278125 77.150625 42.6278125 76.140625 43.1328125 C76.470625 44.1228125 76.800625 45.1128125 77.140625 46.1328125 C76.150625 46.6278125 76.150625 46.6278125 75.140625 47.1328125 C74.59630507 49.04414717 74.59630507 49.04414717 74.2734375 51.3828125 C73.10005308 57.83068618 71.07628882 63.92169506 69.015625 70.1328125 C68.28131712 72.36114473 67.54941561 74.59027186 66.8203125 76.8203125 C66.49788574 77.79355469 66.17545898 78.76679688 65.84326172 79.76953125 C65.04562999 82.04140289 65.04562999 82.04140289 65.140625 84.1328125 C63.160625 83.6378125 63.160625 83.6378125 61.140625 83.1328125 C60.94106201 82.25294678 60.74149902 81.37308105 60.53588867 80.46655273 C57.43575971 66.97468932 53.95801353 53.57964136 50.48510742 40.17993164 C49.61479722 36.82170761 48.74830128 33.46251198 47.88277912 30.10305119 C47.05028438 26.87413867 46.21443499 23.64609751 45.37890625 20.41796875 C44.91331047 18.6104287 44.91331047 18.6104287 44.43830872 16.76637268 C44.00732124 15.10709999 44.00732124 15.10709999 43.56762695 13.41430664 C43.315439 12.43965958 43.06325104 11.46501251 42.80342102 10.46083069 C42.21899301 8.13520954 42.21899301 8.13520954 41.140625 6.1328125 C40.43035156 6.14441406 39.72007812 6.15601563 38.98828125 6.16796875 C38.06917969 6.17699219 37.15007812 6.18601563 36.203125 6.1953125 C35.28660156 6.20691406 34.37007812 6.21851563 33.42578125 6.23046875 C31.140625 6.1328125 31.140625 6.1328125 30.140625 5.1328125 C29.13 5.1328125 28.119375 5.1328125 27.078125 5.1328125 C23.79078818 5.1328125 20.77863922 4.80719316 17.53515625 4.359375 C8.81556229 3.09196542 8.81556229 3.09196542 1.140625 5.1328125 Z " fill="#BDB9EE" transform="translate(88.859375,129.8671875)"/>
<path d="M0 0 C1.90845703 -0.00386719 1.90845703 -0.00386719 3.85546875 -0.0078125 C6.8125 0.125 6.8125 0.125 7.8125 1.125 C8.04939098 4.08612534 8.22406399 7.02625307 8.35302734 9.99267578 C8.39477774 10.8940584 8.43652813 11.79544102 8.47954369 12.72413826 C8.88321603 21.89481566 9.05317321 31.06403412 9.1640625 40.2421875 C9.18731154 41.99936096 9.21070159 43.75653255 9.23422241 45.51370239 C9.2821041 49.16226516 9.32708181 52.81084965 9.37011719 56.45947266 C9.41396657 60.14965479 9.46253471 63.83972447 9.515625 67.52978516 C10.07895493 106.7414069 10.07895493 106.7414069 8.8125 125.125 C4.84319011 125.14965881 0.87390966 125.16784023 -3.09545898 125.17993164 C-4.44670386 125.18497057 -5.79794326 125.19180177 -7.14916992 125.20043945 C-9.08770434 125.21252419 -11.026278 125.21769828 -12.96484375 125.22265625 C-14.71655884 125.23051147 -14.71655884 125.23051147 -16.50366211 125.23852539 C-19.1875 125.125 -19.1875 125.125 -20.1875 124.125 C-20.28347204 122.53077964 -20.30937924 120.9322955 -20.30775452 119.33518982 C-20.30912918 118.29887421 -20.31050385 117.26255859 -20.31192017 116.19483948 C-20.30832489 115.04829391 -20.30472961 113.90174835 -20.30102539 112.72045898 C-20.30117142 111.52062378 -20.30131744 110.32078857 -20.3014679 109.08459473 C-20.30088894 105.78514809 -20.29585978 102.48576336 -20.28889394 99.1863277 C-20.28265973 95.74165703 -20.28205655 92.29698562 -20.28086853 88.85231018 C-20.27775541 82.3251727 -20.26954229 75.79805189 -20.25951904 69.27092177 C-20.2483573 61.84177984 -20.2428473 54.41263714 -20.23782361 46.98348892 C-20.22735966 31.69731628 -20.2097606 16.41116028 -20.1875 1.125 C-18.27966855 0.95962231 -16.37167807 0.79607868 -14.46362305 0.63330078 C-13.40112839 0.54202911 -12.33863373 0.45075745 -11.24394226 0.35671997 C-7.47908927 0.07129281 -3.77579785 -0.00782549 0 0 Z M-10.125 4.625 C-11.84009766 4.76421875 -11.84009766 4.76421875 -13.58984375 4.90625 C-14.44707031 4.9784375 -15.30429688 5.050625 -16.1875 5.125 C-16.1875 5.785 -16.1875 6.445 -16.1875 7.125 C-8.7625 8.115 -8.7625 8.115 -1.1875 9.125 C-0.38760167 18.1696942 -0.02203664 27.14840471 0.04229546 36.2240963 C0.05912455 38.52168558 0.08237198 40.81913724 0.10719299 43.11665344 C0.1767876 49.64060185 0.23722381 56.16460928 0.28930664 62.6887207 C0.44940234 82.25343138 0.91542775 101.63373026 2.8125 121.125 C3.4725 121.125 4.1325 121.125 4.8125 121.125 C4.84353995 111.56251468 4.86362989 102.0000269 4.875 92.4375 C4.87585602 91.72272491 4.87671204 91.00794983 4.87759399 90.27151489 C4.90793392 61.54607707 4.49730079 32.84292257 3.8125 4.125 C-0.86720546 4.10549107 -5.46021927 4.24027582 -10.125 4.625 Z M-16.1875 78.125 C-15.1875 81.125 -15.1875 81.125 -15.1875 81.125 Z " fill="#E8EFF7" transform="translate(261.1875,131.875)"/>
<path d="M0 0 C4.47915328 -0.02886338 8.95828291 -0.04675187 13.4375 -0.0625 C14.71689453 -0.07087891 15.99628906 -0.07925781 17.31445312 -0.08789062 C19.13686523 -0.09272461 19.13686523 -0.09272461 20.99609375 -0.09765625 C22.12200928 -0.10289307 23.2479248 -0.10812988 24.40795898 -0.11352539 C27 0 27 0 28 1 C28.15873955 3.21687994 28.25133837 5.43855298 28.31640625 7.66015625 C28.33718735 8.32462265 28.35796844 8.98908905 28.37937927 9.6736908 C28.44493658 11.80318543 28.50378785 13.93280668 28.5625 16.0625 C28.60567939 17.50326847 28.64929349 18.94402399 28.69335938 20.38476562 C28.80062393 23.9230404 28.90187371 27.46145869 29 31 C43.45161883 15.89338646 43.45161883 15.89338646 57 0 C62.0872112 0.48915492 65.43048443 3.03036832 69.5 5.875 C70.80139774 6.76922775 72.10346727 7.66247872 73.40625 8.5546875 C74.01855469 8.97588867 74.63085938 9.39708984 75.26171875 9.83105469 C77.45786214 11.30789943 79.71180454 12.67108648 82 14 C81.50566614 18.25944817 79.10076304 20.22912667 76.1171875 23.140625 C75.62469513 23.62650085 75.13220276 24.11237671 74.62478638 24.61297607 C73.04847772 26.16592671 71.46240674 27.70840239 69.875 29.25 C67.80604302 31.27213929 65.74152065 33.29872374 63.6796875 35.328125 C63.17951111 35.81939377 62.67933472 36.31066254 62.16400146 36.81681824 C58.77466582 40.16874718 55.60682327 43.64606222 52.52001953 47.27490234 C49.31087353 50.91702018 45.63314313 54.10571556 42.0625 57.38671875 C39.71611332 59.76259323 39.71611332 59.76259323 40.1489563 62.4138031 C41.13969904 65.42452489 42.30123494 66.77985207 44.55419922 68.99243164 C45.30522919 69.73993179 46.05625916 70.48743195 46.83004761 71.25758362 C47.64667877 72.05043259 48.46330994 72.84328156 49.3046875 73.66015625 C50.13960724 74.48704453 50.97452698 75.3139328 51.83474731 76.1658783 C54.50555916 78.8076816 57.18962789 81.43550555 59.875 84.0625 C62.55061876 86.69558378 65.22340869 89.3314782 67.89382935 91.96983337 C69.55631244 93.61065888 71.22227403 95.24796907 72.89205933 96.88136292 C73.64939362 97.62571091 74.40672791 98.3700589 75.18701172 99.13696289 C76.18509354 100.11361656 76.18509354 100.11361656 77.20333862 101.11000061 C79.00659793 103.00694069 80.62507689 104.7687547 82 107 C80.63142833 111.10571502 77.83769456 112.28501117 74.3125 114.4375 C73.07913807 115.20656795 71.84606266 115.9760956 70.61328125 116.74609375 C70.00693848 117.11718262 69.4005957 117.48827148 68.77587891 117.87060547 C67.06683895 118.95749285 65.42725282 120.15130457 63.79296875 121.34765625 C61 123 61 123 59.13964844 122.89697266 C56.08789307 121.61763112 54.29573778 119.6488491 51.97265625 117.30078125 C51.50186142 116.82811325 51.03106659 116.35544525 50.54600525 115.86845398 C49.5516375 114.86737358 48.56086933 113.86270657 47.57348633 112.85473633 C46.07806302 111.32838489 44.57245131 109.8127468 43.06445312 108.29882812 C38.49445643 103.68551885 34.10915951 99.02875614 30 94 C30.00785522 95.30988892 30.00785522 95.30988892 30.01586914 96.64624023 C30.03287751 99.87589273 30.04543369 103.10552245 30.05493164 106.33520508 C30.0599708 107.73495228 30.06680216 109.1346942 30.07543945 110.53442383 C30.0875232 112.54245777 30.09269807 114.55052957 30.09765625 116.55859375 C30.10551147 118.37315063 30.10551147 118.37315063 30.11352539 120.22436523 C30 123 30 123 29 124 C26.85441173 124.08775605 24.70595579 124.10695219 22.55859375 124.09765625 C21.25341797 124.09443359 19.94824219 124.09121094 18.60351562 124.08789062 C17.2148431 124.07953401 15.82617123 124.07106905 14.4375 124.0625 C13.04492344 124.05748666 11.65234519 124.05292347 10.25976562 124.04882812 C6.8398013 124.03699434 3.41992156 124.0205088 0 124 C-0.14588595 117.30044559 -0.28779765 110.60081451 -0.42724609 103.90112305 C-0.47488412 101.63320108 -0.52335477 99.3652964 -0.57275391 97.09741211 C-1.10230806 72.73251761 -1.01939239 48.42688308 -0.5 24.0625 C-0.45160799 21.71029087 -0.40342992 19.35807733 -0.35546875 17.00585938 C-0.23943248 11.33718662 -0.12080526 5.66857303 0 0 Z M10.125 3.5 C8.97257812 3.5928125 7.82015625 3.685625 6.6328125 3.78125 C5.32957031 3.88953125 5.32957031 3.88953125 4 4 C3.13976045 6.98004781 2.87443891 9.62875508 2.87301636 12.72624207 C2.87019653 13.67268082 2.86737671 14.61911957 2.86447144 15.59423828 C2.86649567 16.62556885 2.8685199 17.65689941 2.87060547 18.71948242 C2.86885315 19.81086014 2.86710083 20.90223785 2.86529541 22.02668762 C2.86089171 25.63629747 2.8638091 29.2458584 2.8671875 32.85546875 C2.86651418 35.35842396 2.86554392 37.86137912 2.86428833 40.36433411 C2.86281349 45.60902406 2.86486449 50.85370124 2.86962891 56.09838867 C2.87507936 62.16850955 2.87330178 68.23859688 2.8678025 74.30871695 C2.86272645 80.14464592 2.86325226 85.98056208 2.86618423 91.81649208 C2.86685354 94.30252398 2.86602496 96.78855673 2.86370468 99.27458763 C2.86118012 102.73931563 2.86501557 106.20397808 2.87060547 109.66870117 C2.86858124 110.70610443 2.86655701 111.74350769 2.86447144 112.81234741 C2.86729126 113.75032669 2.87011108 114.68830597 2.87301636 115.65470886 C2.87339338 116.47451831 2.87377041 117.29432775 2.87415886 118.13897991 C2.79607758 120.01534108 2.79607758 120.01534108 4 121 C6.86469325 121.07330331 9.69893674 121.09217831 12.5625 121.0625 C15.346875 121.041875 18.13125 121.02125 21 121 C21.33 110.11 21.66 99.22 22 88 C24.64 87.67 27.28 87.34 30 87 C30.22300781 87.55171875 30.44601562 88.1034375 30.67578125 88.671875 C32.41554097 91.7305676 34.65764482 93.8073812 37.1875 96.25 C40.47744684 99.46290142 43.69614261 102.69065861 46.6875 106.1875 C49.13181138 109.01281915 51.58193371 111.82527036 54.125 114.5625 C54.74632812 115.24441406 55.36765625 115.92632812 56.0078125 116.62890625 C57.93694373 118.24908043 57.93694373 118.24908043 60.47265625 117.90625 C63.2042366 116.92676524 65.04797661 115.74144236 67.3125 113.9375 C68.00988281 113.38964844 68.70726562 112.84179688 69.42578125 112.27734375 C69.94527344 111.85582031 70.46476562 111.43429688 71 111 C66.59156563 105.70987876 61.92440206 100.81191572 57 96 C61.45534152 99.30557596 65.07950694 103.19585765 68.81640625 107.26953125 C70.8372591 109.28535164 70.8372591 109.28535164 73.27734375 108.76171875 C73.84582031 108.51035156 74.41429687 108.25898438 75 108 C73.58261511 104.74792908 71.87473588 102.68638933 69.3125 100.25 C66.69699387 97.75504826 64.28058555 95.18105901 61.9375 92.43359375 C56.70447147 86.39586167 50.89865832 80.89528994 45.16577148 75.3371582 C43.69093896 73.9047292 42.22579191 72.46294446 40.76171875 71.01953125 C39.4617395 69.75266479 39.4617395 69.75266479 38.13549805 68.46020508 C36.01569962 66.01808678 34.98193432 64.05638576 34 61 C34.42410156 60.5875 34.84820312 60.175 35.28515625 59.75 C35.87167969 59.1725 36.45820313 58.595 37.0625 58 C37.63097656 57.443125 38.19945312 56.88625 38.78515625 56.3125 C40.60865505 54.40860002 42.31359964 52.47226918 44.0234375 50.46875 C47.04562361 46.99136447 50.22879431 43.7062868 53.50390625 40.46875 C53.99417801 39.98398193 54.48444977 39.49921387 54.98957825 38.99975586 C57.02418649 36.99270546 59.06232355 34.9893323 61.10522461 32.99072266 C66.90324248 27.30993903 72.34179719 21.68870147 77 15 C71.39 11.7 65.78 8.4 60 5 C56.65147106 7.67882315 54.35821171 9.54579045 51.75 12.6875 C49.12095632 15.76805335 46.38583131 18.65833958 43.5 21.5 C39.44892907 25.49586042 35.71830261 29.6976708 32 34 C29.3008127 37.00766585 27.90012506 38.16829631 24 39 C24.00523682 38.40687012 24.01047363 37.81374023 24.01586914 37.20263672 C24.10341746 25.7504305 24.09047353 14.41102662 23 3 C18.67693289 2.94743991 14.43343521 3.148291 10.125 3.5 Z M22 88 C22 98.56 22 109.12 22 120 C22.99 120 23.98 120 25 120 C25 109.44 25 98.88 25 88 C24.01 88 23.02 88 22 88 Z " fill="#C1BEEF" transform="translate(362,133)"/>
<path d="M0 0 C9.9 0.33 19.8 0.66 30 1 C30.68827433 4.44137164 31.15333927 7.25978686 31.29663086 10.68920898 C31.33567032 11.61443863 31.37470978 12.53966827 31.41493225 13.49293518 C31.45202805 14.50460251 31.48912384 15.51626984 31.52734375 16.55859375 C31.56866928 17.6411998 31.60999481 18.72380585 31.65257263 19.83921814 C32.18279199 34.78827927 32.34312233 49.74596674 32.53222656 64.70239258 C32.59259438 69.40864844 32.65801182 74.11483681 32.72252655 78.82103729 C32.81876561 85.88064852 32.90881966 92.94031351 33 100 C44.55 100 56.1 100 68 100 C69.20270964 102.40541929 69.20316663 104.10366591 69.31640625 106.7890625 C69.35830078 107.73007813 69.40019531 108.67109375 69.44335938 109.640625 C69.48267578 110.62546875 69.52199219 111.6103125 69.5625 112.625 C69.60568359 113.61757812 69.64886719 114.61015625 69.69335938 115.6328125 C69.79961069 118.08839838 69.90164964 120.54408703 70 123 C28.88243863 124.0963128 28.88243863 124.0963128 12.4375 124.125 C10.83672607 124.13176758 10.83672607 124.13176758 9.20361328 124.13867188 C8.24825684 124.13673828 7.29290039 124.13480469 6.30859375 124.1328125 C5.49189209 124.13168457 4.67519043 124.13055664 3.83374023 124.12939453 C2 124 2 124 1 123 C0.87605656 121.10339884 0.82199363 119.20220822 0.79467773 117.30175781 C0.77473755 116.06966583 0.75479736 114.83757385 0.73425293 113.56814575 C0.71719828 112.19647425 0.70031732 110.82480058 0.68359375 109.453125 C0.66289848 108.02830514 0.64185458 106.6034903 0.6204834 105.17868042 C0.56438146 101.33346504 0.5151216 97.48819 0.46757126 93.64286041 C0.43762456 91.25991153 0.40578405 88.87699544 0.37332153 86.49407959 C-0.01778195 57.66146977 -0.11099972 28.83525977 0 0 Z M4 4 C3.87859151 27.29693931 4.03969044 50.58091405 4.4375 73.875 C4.45714813 75.09057587 4.47679626 76.30615173 4.49703979 77.55856323 C4.68362112 88.92198925 4.88089809 100.28204443 5.47265625 111.6328125 C5.50975204 112.37900848 5.54684784 113.12520447 5.58506775 113.89401245 C5.5151835 117.23607709 5.5151835 117.23607709 7 120 C8.84118029 120.09381302 10.68597641 120.11743954 12.52954102 120.11352539 C14.30126427 120.11341209 14.30126427 120.11341209 16.10877991 120.11329651 C18.03686745 120.10555458 18.03686745 120.10555458 20.00390625 120.09765625 C21.31205795 120.0962413 22.62020966 120.09482635 23.96800232 120.09336853 C27.45162859 120.0895441 30.93521339 120.07971446 34.41882324 120.06866455 C37.97126708 120.05844882 41.52371759 120.05387056 45.07617188 120.04882812 C52.05079832 120.03809212 59.02539717 120.0210166 66 120 C65.85936865 117.70800823 65.71234057 115.41640814 65.5625 113.125 C65.48128906 111.84882813 65.40007812 110.57265625 65.31640625 109.2578125 C65.20793973 106.11699848 65.20793973 106.11699848 64 104 C52.78 104 41.56 104 30 104 C29.07939527 99.39697634 28.7981854 95.12453745 28.71875 90.46533203 C28.69167969 89.19363159 28.69167969 89.19363159 28.6640625 87.89624023 C28.62554885 86.06022228 28.58908483 84.22416043 28.55444336 82.38806534 C28.49945187 79.47881416 28.43892099 76.56972443 28.37695312 73.66061401 C28.246345 67.48217281 28.1227378 61.30360187 28 55.125 C27.85769721 47.97039361 27.71250498 40.81586787 27.56030273 33.66146469 C27.5009102 30.80163988 27.44663829 27.94174748 27.39257812 25.08181763 C27.35571633 23.31902557 27.31861933 21.5562384 27.28125 19.79345703 C27.26771484 19.0036142 27.25417969 18.21377136 27.24023438 17.3999939 C27.22347656 16.65715149 27.20671875 15.91430908 27.18945312 15.1489563 C27.17692505 14.51296068 27.16439697 13.87696507 27.15148926 13.22169685 C26.94075314 10.13110301 26.43809086 7.06663601 26 4 C18.74 4 11.48 4 4 4 Z " fill="#C2BFEF" transform="translate(284,133)"/>
<path d="M0 0 C1.90845703 -0.00386719 1.90845703 -0.00386719 3.85546875 -0.0078125 C6.8125 0.125 6.8125 0.125 7.8125 1.125 C8.04939098 4.08612534 8.22406399 7.02625307 8.35302734 9.99267578 C8.39477774 10.8940584 8.43652813 11.79544102 8.47954369 12.72413826 C8.88321603 21.89481566 9.05317321 31.06403412 9.1640625 40.2421875 C9.18731154 41.99936096 9.21070159 43.75653255 9.23422241 45.51370239 C9.2821041 49.16226516 9.32708181 52.81084965 9.37011719 56.45947266 C9.41396657 60.14965479 9.46253471 63.83972447 9.515625 67.52978516 C10.07895493 106.7414069 10.07895493 106.7414069 8.8125 125.125 C4.84319011 125.14965881 0.87390966 125.16784023 -3.09545898 125.17993164 C-4.44670386 125.18497057 -5.79794326 125.19180177 -7.14916992 125.20043945 C-9.08770434 125.21252419 -11.026278 125.21769828 -12.96484375 125.22265625 C-14.71655884 125.23051147 -14.71655884 125.23051147 -16.50366211 125.23852539 C-19.1875 125.125 -19.1875 125.125 -20.1875 124.125 C-20.28347204 122.53077964 -20.30937924 120.9322955 -20.30775452 119.33518982 C-20.30912918 118.29887421 -20.31050385 117.26255859 -20.31192017 116.19483948 C-20.30832489 115.04829391 -20.30472961 113.90174835 -20.30102539 112.72045898 C-20.30117142 111.52062378 -20.30131744 110.32078857 -20.3014679 109.08459473 C-20.30088894 105.78514809 -20.29585978 102.48576336 -20.28889394 99.1863277 C-20.28265973 95.74165703 -20.28205655 92.29698562 -20.28086853 88.85231018 C-20.27775541 82.3251727 -20.26954229 75.79805189 -20.25951904 69.27092177 C-20.2483573 61.84177984 -20.2428473 54.41263714 -20.23782361 46.98348892 C-20.22735966 31.69731628 -20.2097606 16.41116028 -20.1875 1.125 C-18.27966855 0.95962231 -16.37167807 0.79607868 -14.46362305 0.63330078 C-13.40112839 0.54202911 -12.33863373 0.45075745 -11.24394226 0.35671997 C-7.47908927 0.07129281 -3.77579785 -0.00782549 0 0 Z M-16.1875 5.125 C-16.1875 43.405 -16.1875 81.685 -16.1875 121.125 C-5.76056236 122.78835766 -5.76056236 122.78835766 4.8125 121.125 C4.84353995 111.56251468 4.86362989 102.0000269 4.875 92.4375 C4.87585602 91.72272491 4.87671204 91.00794983 4.87759399 90.27151489 C4.90793392 61.54607707 4.49730079 32.84292257 3.8125 4.125 C-2.96778687 3.96731891 -9.31583224 4.59641017 -16.1875 5.125 Z " fill="#C2BEEF" transform="translate(261.1875,131.875)"/>
<path d="M0 0 C3.36241138 2.21060663 5.75324762 4.62987143 8 8 C8.65591133 12.01141562 8.86557048 16.13747781 7.125 19.8828125 C4.2348357 23.66664602 0.60146786 26.00148979 -4 27 C-10.48428262 27.62001109 -15.5676575 27.96011245 -21 24 C-25.05319038 18.85135276 -25.73172119 14.40227139 -25.52734375 7.88671875 C-24.71739087 3.45297669 -22.56865704 0.68300493 -19 -2 C-12.3441785 -4.21860717 -6.21306001 -2.8580076 0 0 Z " fill="#3D15D4" transform="translate(132,304)"/>
<path d="M0 0 C3.82884245 3.04889306 4.81602584 5.14615505 5.625 10 C4.92227991 14.52864058 3.48416986 15.78747922 -0.07421875 18.46875 C-2.4393196 19.93640168 -4.15114744 20.48568237 -6.9375 20.625 C-8.071875 20.728125 -9.20625 20.83125 -10.375 20.9375 C-14.68282295 20.55962079 -16.64534487 19.3812229 -19.9375 16.625 C-22.67806141 12.2138224 -22.72314807 7.66425785 -21.9375 2.625 C-20.3715291 -0.48822502 -18.4104476 -2.83965765 -15.03515625 -4.06640625 C-9.66758072 -4.85604958 -4.41297681 -2.99122277 0 0 Z " fill="#3D15D4" transform="translate(401.9375,292.375)"/>
<path d="M0 0 C6.1503117 3.62509248 10.04116478 7.22235212 12.140625 14.26171875 C12.88379856 20.10093954 11.6858607 24.6133113 8.140625 29.26171875 C1.67321199 34.72764803 -4.80015132 37.77652169 -13.296875 37.57421875 C-18.82640354 36.899886 -23.05919129 34.4708546 -26.734375 30.32421875 C-30.98155182 24.20328745 -31.86652036 18.59949209 -30.859375 11.26171875 C-28.41270995 5.17538667 -24.30333374 1.17502916 -18.609375 -1.98828125 C-11.88404702 -3.82246161 -6.21641054 -3.09733742 0 0 Z M-25.71875 9.0390625 C-28.04494666 13.57195941 -27.63993682 18.34484643 -26.859375 23.26171875 C-25.60738663 27.03093241 -23.83857953 29.55078943 -20.578125 31.91796875 C-15.31225398 34.52064063 -9.01103798 34.20874511 -3.44140625 32.53515625 C0.78084643 30.58642424 3.68177468 28.29423328 6.140625 24.26171875 C7.75907794 19.13661776 7.94209073 14.08323178 5.765625 9.13671875 C1.73795554 4.72546173 -3.16148539 1.95181787 -9.078125 0.84765625 C-16.15505274 0.54824777 -21.39383088 3.67843907 -25.71875 9.0390625 Z " fill="#C1BDEF" transform="translate(133.859375,297.73828125)"/>
<path d="M0 0 C5.00901839 2.22516009 8.79766439 5.66753486 11.65625 10.33984375 C13.41651166 16.03480793 12.33963828 20.20884608 9.65625 25.33984375 C6.11338403 30.24535048 0.19112121 32.6219181 -5.61328125 33.80078125 C-11.27196076 34.21700636 -14.9752823 32.40233865 -19.45703125 29.03125 C-22.91034096 25.93542576 -24.10640269 23.34816717 -24.6484375 18.76171875 C-24.94479704 12.38127212 -24.27502429 8.40911849 -20.34375 3.33984375 C-14.79465686 -2.07052206 -7.18626151 -2.02413033 0 0 Z M-19.28125 8.46484375 C-20.87966722 12.7899727 -21.0064607 16.78825929 -20.34375 21.33984375 C-18.72290526 24.58153324 -17.40176565 26.53721119 -14.53125 28.71484375 C-8.9592682 30.30683855 -3.65670201 29.40599176 1.65625 27.33984375 C6.07294934 23.59525083 7.46260432 21.30857481 8.03125 15.52734375 C7.97365227 12.04588097 7.55826355 11.18247157 5.59375 8.02734375 C1.59298559 4.36706993 -1.98359193 2.68403347 -7.34375 1.90234375 C-12.34521959 2.63172473 -15.88950688 4.74486742 -19.28125 8.46484375 Z " fill="#C2BFEF" transform="translate(400.34375,283.66015625)"/>
</svg>
